<svg width="218" height="40" viewBox="0 0 218 40" fill="none" xmlns="http://www.w3.org/2000/svg">
<path opacity="0.98" d="M20.5221 0C9.43005 0 0.431641 8.95791 0.431641 20C0.431641 31.0421 9.43005 40 20.5221 40C31.614 40 40.6124 31.0421 40.6124 20C40.6124 8.95791 31.614 0 20.5221 0ZM19.4752 36.032V23.487H12.4698L22.5351 3.96794V16.513H29.2789L19.4752 36.032Z" fill="#009688"/>
<path d="M56.6565 37.1449V2.60596H77.5837V6.74265H61.5128V17.1592H75.7813V21.246H61.5128V37.1449H56.6565Z" fill="#009688"/>
<path d="M89.5156 33.8056C90.617 33.8056 91.5849 33.789 92.4194 33.7558C93.2872 33.6894 94.0047 33.5897 94.5722 33.4568V25.7316C94.2384 25.5655 93.6877 25.4326 92.92 25.3329C92.1857 25.2 91.2846 25.1335 90.2165 25.1335C89.5156 25.1335 88.7646 25.1834 87.9636 25.283C87.1959 25.3827 86.4783 25.5987 85.8108 25.931C85.1766 26.23 84.6426 26.6619 84.2087 27.2268C83.7748 27.7584 83.5579 28.4728 83.5579 29.3699C83.5579 31.0312 84.0919 32.1942 85.1599 32.8587C86.228 33.49 87.6799 33.8056 89.5156 33.8056ZM89.1151 10.5803C90.9842 10.5803 92.5529 10.8295 93.8212 11.3279C95.1229 11.7931 96.1575 12.4742 96.9252 13.3713C97.7262 14.2352 98.2936 15.2819 98.6274 16.5113C98.9612 17.7074 99.1281 19.0365 99.1281 20.4984V36.6963C98.7275 36.7628 98.1601 36.8625 97.4259 36.9954C96.7249 37.0951 95.9239 37.1947 95.0227 37.2944C94.1216 37.3941 93.137 37.4772 92.0689 37.5436C91.0342 37.6433 89.9995 37.6931 88.9649 37.6931C87.4963 37.6931 86.1445 37.5436 84.9096 37.2446C83.6747 36.9455 82.6066 36.4804 81.7055 35.8491C80.8043 35.1845 80.1034 34.3206 79.6027 33.2574C79.1021 32.1942 78.8517 30.9149 78.8517 29.4197C78.8517 27.991 79.1354 26.7616 79.7028 25.7316C80.3036 24.7016 81.1047 23.8709 82.106 23.2396C83.1073 22.6083 84.2755 22.1431 85.6105 21.8441C86.9456 21.5451 88.3474 21.3955 89.816 21.3955C90.2833 21.3955 90.7672 21.4288 91.2679 21.4952C91.7685 21.5285 92.2358 21.5949 92.6697 21.6946C93.137 21.761 93.5375 21.8275 93.8712 21.8939C94.205 21.9604 94.4386 22.0102 94.5722 22.0435V20.7476C94.5722 19.9834 94.4887 19.2358 94.3218 18.5048C94.1549 17.7406 93.8546 17.0761 93.4207 16.5113C92.9868 15.9132 92.386 15.448 91.6183 15.1157C90.884 14.7502 89.9161 14.5675 88.7146 14.5675C87.1792 14.5675 85.8275 14.6838 84.6593 14.9164C83.5245 15.1157 82.6734 15.3317 82.106 15.5643L81.5553 11.7266C82.156 11.4608 83.1573 11.2116 84.5592 10.979C85.961 10.7132 87.4796 10.5803 89.1151 10.5803Z" fill="#009688"/>
<path d="M112.87 33.8056C114.773 33.8056 116.174 33.5564 117.076 33.058C118.01 32.5596 118.477 31.7622 118.477 30.6657C118.477 29.536 118.027 28.6389 117.126 27.9744C116.224 27.3099 114.739 26.5623 112.67 25.7316C111.669 25.3329 110.701 24.9342 109.766 24.5354C108.865 24.1035 108.081 23.6051 107.413 23.0403C106.745 22.4754 106.211 21.7943 105.811 20.9968C105.41 20.1994 105.21 19.2192 105.21 18.0563C105.21 15.7637 106.061 13.9528 107.763 12.6238C109.466 11.2615 111.785 10.5803 114.722 10.5803C115.457 10.5803 116.191 10.6302 116.925 10.7298C117.66 10.7963 118.344 10.896 118.978 11.0289C119.612 11.1286 120.163 11.2448 120.63 11.3778C121.131 11.5107 121.515 11.627 121.782 11.7266L120.931 15.7138C120.43 15.448 119.646 15.1822 118.577 14.9164C117.509 14.6173 116.224 14.4678 114.722 14.4678C113.421 14.4678 112.286 14.7336 111.318 15.2653C110.35 15.7637 109.866 16.5611 109.866 17.6576C109.866 18.2224 109.966 18.7208 110.167 19.1528C110.4 19.5847 110.734 19.9834 111.168 20.3489C111.635 20.6812 112.203 20.9968 112.87 21.2959C113.538 21.5949 114.339 21.9106 115.273 22.2428C116.508 22.708 117.61 23.1732 118.577 23.6383C119.545 24.0703 120.363 24.5853 121.031 25.1834C121.732 25.7814 122.266 26.5124 122.633 27.3763C123 28.207 123.183 29.237 123.183 30.4664C123.183 32.8587 122.282 34.6695 120.48 35.8989C118.711 37.1283 116.174 37.743 112.87 37.743C110.567 37.743 108.765 37.5436 107.463 37.1449C106.161 36.7794 105.277 36.497 104.81 36.2976L105.661 32.3104C106.195 32.5098 107.046 32.8088 108.214 33.2076C109.382 33.6063 110.934 33.8056 112.87 33.8056Z" fill="#009688"/>
<path d="M133.462 11.2282H143.325V15.1157H133.462V27.0773C133.462 28.3731 133.563 29.453 133.763 30.3169C133.963 31.1475 134.263 31.8121 134.664 32.3104C135.065 32.7756 135.565 33.1079 136.166 33.3072C136.767 33.5066 137.468 33.6063 138.269 33.6063C139.671 33.6063 140.789 33.4568 141.623 33.1577C142.491 32.8255 143.092 32.5929 143.425 32.46L144.327 36.2976C143.859 36.5302 143.042 36.8126 141.873 37.1449C140.705 37.5104 139.37 37.6931 137.868 37.6931C136.099 37.6931 134.631 37.4772 133.462 37.0452C132.328 36.5801 131.41 35.8989 130.709 35.0018C130.008 34.1047 129.507 33.0082 129.207 31.7124C128.94 30.3833 128.806 28.8549 128.806 27.1271V4.00148L133.462 3.20404V11.2282Z" fill="#009688"/>
<path d="M172.731 37.1449C172.163 35.6497 171.629 34.1877 171.129 32.759C170.628 31.297 170.111 29.8185 169.577 28.3233H153.856L150.702 37.1449H145.645C146.981 33.49 148.232 30.1175 149.4 27.0274C150.568 23.9041 151.703 20.947 152.805 18.156C153.94 15.3649 155.058 12.7068 156.159 10.1816C157.261 7.62316 158.412 5.09794 159.614 2.60596H164.069C165.271 5.09794 166.422 7.62316 167.524 10.1816C168.625 12.7068 169.727 15.3649 170.828 18.156C171.963 20.947 173.114 23.9041 174.283 27.0274C175.451 30.1175 176.702 33.49 178.037 37.1449H172.731ZM168.175 24.3361C167.107 21.4454 166.039 18.6544 164.971 15.963C163.936 13.2384 162.851 10.6302 161.716 8.13817C160.548 10.6302 159.43 13.2384 158.362 15.963C157.327 18.6544 156.293 21.4454 155.258 24.3361H168.175Z" fill="#009688"/>
<path d="M191.911 2.25708C196.784 2.25708 200.522 3.18742 203.126 5.04811C205.762 6.87556 207.081 9.61675 207.081 13.2717C207.081 15.2653 206.714 16.9764 205.979 18.4052C205.278 19.8007 204.244 20.947 202.875 21.8441C201.54 22.708 199.905 23.3393 197.969 23.738C196.033 24.1367 193.847 24.3361 191.41 24.3361H187.555V37.1449H182.699V3.10436C184.067 2.77209 185.586 2.55612 187.255 2.45644C188.957 2.32353 190.509 2.25708 191.911 2.25708ZM192.312 6.49346C190.242 6.49346 188.657 6.5433 187.555 6.64298V20.1994H191.21C192.879 20.1994 194.381 20.0997 195.716 19.9003C197.051 19.6678 198.169 19.3023 199.07 18.8039C200.005 18.2723 200.722 17.5579 201.223 16.6608C201.724 15.7637 201.974 14.6173 201.974 13.2218C201.974 11.8928 201.707 10.7963 201.173 9.9324C200.672 9.06851 199.971 8.38737 199.07 7.88897C198.202 7.35735 197.184 6.99186 196.016 6.7925C194.848 6.59314 193.613 6.49346 192.312 6.49346Z" fill="#009688"/>
<path d="M213.109 2.60596H217.966V37.1449H213.109V2.60596Z" fill="#009688"/>
</svg>
