<svg width="145" height="40" viewBox="0 0 145 40" fill="none" xmlns="http://www.w3.org/2000/svg">
<g clip-path="url(#clip0_50_48)">
<path d="M35.2652 0.0333252V30.8559L39.2009 30.871V16.2H48.7097V12.317H39.2009V3.91636H51.5788V0.0333252H35.2652ZM58.6841 6.28849C60.1112 6.28849 61.2529 5.12509 61.2529 3.70483C61.2529 2.28458 60.0962 1.12118 58.6841 1.12118C57.2571 1.12118 56.1154 2.28458 56.1154 3.70483C56.1154 5.12509 57.2721 6.28849 58.6841 6.28849ZM56.6862 10.1715V30.8559H60.6219V10.1715H56.6862Z" fill="white"/>
<path fill-rule="evenodd" clip-rule="evenodd" d="M75.2381 9.5672C69.9955 9.5672 66.3452 14.0244 66.3452 19.3126C66.3452 24.6007 69.9955 29.0579 75.2381 29.0579C77.6416 29.0579 79.6094 28.1212 81.0515 26.6102V29.345C81.0515 32.7748 78.3776 35.6304 74.8776 35.6304C73.6157 35.6304 72.3689 35.1469 71.3775 34.4519L69.3946 37.8967C70.9719 38.9242 72.8496 39.5134 74.8626 39.5134C80.4506 39.5134 84.9722 34.9656 84.9722 29.345V10.1716H81.0515V12.0149C79.6094 10.504 77.6416 9.5672 75.2381 9.5672ZM70.2959 19.3126C70.2959 16.0339 72.7896 13.4502 75.6737 13.4502C78.5579 13.4502 81.0515 16.0339 81.0515 19.3126C81.0515 22.5912 78.5579 25.1749 75.6737 25.1749C72.7896 25.1749 70.2959 22.5912 70.2959 19.3126Z" fill="white"/>
<path d="M99.1978 13.4502C96.8695 13.4502 94.9767 15.4446 94.9767 17.7865V30.8559H91.041V10.1716H94.9767V12.0602C96.1334 10.5644 97.8309 9.5672 100.054 9.5672C102.818 9.5672 104.936 10.9421 106.168 13.0574C107.535 11.0177 109.758 9.5672 112.447 9.5672C116.939 9.5672 119.733 13.2085 119.748 17.711V30.8559H115.812V17.7714C115.812 15.4295 113.919 13.4351 111.591 13.4351C109.262 13.4351 107.37 15.4295 107.37 17.7714V30.8559H103.434V17.7714C103.419 15.4295 101.526 13.4502 99.1978 13.4502Z" fill="white"/>
<path fill-rule="evenodd" clip-rule="evenodd" d="M140.748 12.5135C138.99 10.6853 136.587 9.5672 133.808 9.5672C127.949 9.5672 123.773 14.5683 123.773 20.5213C123.773 26.4743 127.934 31.4754 133.808 31.4754C136.587 31.4754 138.99 30.3422 140.748 28.5291V30.8559H144.684V10.1716H140.748V12.5135ZM127.724 20.5213C127.724 16.5778 130.729 13.4502 134.244 13.4502C137.744 13.4502 140.763 16.5627 140.763 20.5213C140.763 24.4648 137.759 27.5923 134.244 27.5923C130.729 27.5772 127.724 24.4648 127.724 20.5213Z" fill="white"/>
<path d="M13.6188 20.0075C13.6188 16.336 16.5781 13.3444 20.2434 13.3444C23.8937 13.3444 26.868 16.3209 26.868 20.0075C26.868 23.679 23.9087 26.6706 20.2434 26.6706C16.5931 26.6706 13.6188 23.679 13.6188 20.0075Z" fill="#1ABCFE"/>
<path d="M0.384644 33.3187C0.384644 29.6472 3.34393 26.6556 7.00924 26.6556H13.6338V33.3187C13.6338 36.9902 10.6746 39.9818 7.00924 39.9818C3.34393 39.9818 0.384644 37.0053 0.384644 33.3187Z" fill="#0ACF83"/>
<path d="M13.6188 0.0333586V13.3445H20.2434C23.8937 13.3445 26.868 10.368 26.868 6.68136C26.868 3.00985 23.9087 0.0182495 20.2434 0.0182495H13.6188V0.0333586Z" fill="#FF7262"/>
<path d="M0.384644 6.69643C0.384644 10.3679 3.34393 13.3595 7.00924 13.3595H13.6338V0.0333252H7.00924C3.34393 0.0333252 0.384644 3.00981 0.384644 6.69643Z" fill="#F24E1E"/>
<path d="M0.384644 20.0075C0.384644 23.679 3.34393 26.6706 7.00924 26.6706H13.6338V13.3444H7.00924C3.34393 13.3444 0.384644 16.336 0.384644 20.0075Z" fill="#A259FF"/>
</g>
<defs>
<clipPath id="clip0_50_48">
<rect width="144.299" height="40" fill="white" transform="translate(0.384644)"/>
</clipPath>
</defs>
</svg>
