<svg width="256" height="40" viewBox="0 0 256 40" fill="none" xmlns="http://www.w3.org/2000/svg">
<path d="M30.6478 10.4887H32.088L36.1927 6.37461L36.3944 4.62791C34.0429 2.54769 31.2012 1.10264 28.1376 0.429248C25.074 -0.244139 21.8898 -0.123626 18.8856 0.779404C15.8814 1.68243 13.1565 3.33817 10.9682 5.5902C8.77998 7.84223 7.20066 10.6162 6.37946 13.6501C6.83674 13.4622 7.3433 13.4318 7.81971 13.5635L16.0292 12.2066C16.0292 12.2066 16.4468 11.5136 16.6629 11.557C18.4219 9.62067 20.8528 8.43152 23.458 8.23293C26.0632 8.03435 28.6456 8.84134 30.6766 10.4887H30.6478Z" fill="#EA4335"/>
<path d="M42.0402 13.6501C41.0967 10.1677 39.1596 7.0371 36.4664 4.64233L30.7054 10.4165C31.906 11.3998 32.8683 12.6436 33.5194 14.0539C34.1706 15.4642 34.4937 17.0044 34.4645 18.5582V19.5831C35.1378 19.5831 35.8045 19.716 36.4266 19.9743C37.0487 20.2325 37.6139 20.6111 38.09 21.0883C38.5661 21.5655 38.9438 22.132 39.2015 22.7555C39.4591 23.379 39.5918 24.0472 39.5918 24.7221C39.5918 25.397 39.4591 26.0652 39.2015 26.6887C38.9438 27.3122 38.5661 27.8788 38.09 28.356C37.6139 28.8332 37.0487 29.2117 36.4266 29.47C35.8045 29.7282 35.1378 29.8612 34.4645 29.8612H24.2098L23.1873 30.9005V37.0645L24.2098 38.0894H34.4645C37.328 38.1117 40.1227 37.2097 42.4351 35.5166C44.7475 33.8236 46.4549 31.4296 47.3045 28.6886C48.1542 25.9476 48.101 23.0054 47.1529 20.297C46.2049 17.5887 44.4122 15.2581 42.0402 13.6501Z" fill="#4285F4"/>
<path d="M13.9408 38.0317H24.1954V29.8034H13.9408C13.2102 29.8033 12.4882 29.6457 11.8236 29.3415L10.3834 29.789L6.24983 33.9031L5.88977 35.3467C8.20776 37.101 11.0362 38.0443 13.9408 38.0317Z" fill="#34A853"/>
<path d="M13.9408 11.3404C11.1623 11.3571 8.45836 12.2431 6.20663 13.8747C3.95491 15.5064 2.26786 17.8022 1.38112 20.4414C0.494375 23.0807 0.45222 25.9317 1.26054 28.5962C2.06886 31.2606 3.68729 33.6055 5.88979 35.3033L11.838 29.3415C11.0821 28.9992 10.4204 28.4782 9.90954 27.8232C9.3987 27.1682 9.05403 26.3988 8.9051 25.5809C8.75617 24.7631 8.80744 23.9212 9.05449 23.1276C9.30154 22.334 9.73701 21.6123 10.3235 21.0244C10.9101 20.4365 11.6301 20.0001 12.4219 19.7524C13.2138 19.5048 14.0537 19.4534 14.8697 19.6027C15.6857 19.752 16.4533 20.0974 17.1068 20.6095C17.7603 21.1215 18.2801 21.7847 18.6216 22.5424L24.5699 16.5805C23.3214 14.9446 21.7123 13.6204 19.8684 12.7113C18.0244 11.8023 15.9957 11.3331 13.9408 11.3404Z" fill="#FBBC05"/>
<path d="M75.2093 32.2864C73.4438 32.3089 71.6918 31.9741 70.0585 31.3019C68.4251 30.6297 66.9439 29.6339 65.7036 28.3743C64.4243 27.1682 63.409 25.7087 62.7222 24.0885C62.0355 22.4683 61.6922 20.7227 61.7141 18.9624C61.693 17.2023 62.0367 15.4569 62.7235 13.8368C63.4102 12.2167 64.425 10.7571 65.7036 9.55046C66.9379 8.27782 68.4163 7.26875 70.05 6.58403C71.6836 5.8993 73.4386 5.5531 75.2093 5.56626C76.8965 5.54372 78.5713 5.85754 80.1364 6.48947C81.7015 7.12141 83.1257 8.05885 84.3261 9.24731L81.7625 11.8601C80.0068 10.1596 77.6506 9.22529 75.2093 9.26175C73.9429 9.24616 72.6872 9.49478 71.5218 9.99181C70.3564 10.4888 69.307 11.2234 68.4401 12.1488C67.5392 13.0447 66.8285 14.114 66.3508 15.2924C65.873 16.4708 65.6382 17.7339 65.6604 19.0057C65.6499 20.263 65.8903 21.5096 66.3677 22.6724C66.8451 23.8351 67.5497 24.8903 68.4401 25.776C70.2237 27.5574 72.6305 28.5709 75.1483 28.6005C77.6661 28.6302 80.0961 27.6737 81.9209 25.9348C83.0507 24.6947 83.7437 23.1178 83.8941 21.4453H75.2525V17.7498H87.4803C87.6005 18.4941 87.6487 19.2482 87.6243 20.0018C87.7004 21.5614 87.4601 23.1203 86.9179 24.5842C86.3758 26.048 85.5431 27.3865 84.4702 28.5187C83.2772 29.7636 81.836 30.7425 80.2403 31.3916C78.6447 32.0408 76.9304 32.3457 75.2093 32.2864ZM103.64 29.8323C101.999 31.409 99.8137 32.2892 97.5405 32.2892C95.2673 32.2892 93.082 31.409 91.441 29.8323C90.6242 29.0386 89.981 28.0833 89.552 27.0272C89.1231 25.9711 88.9179 24.8371 88.9494 23.6972C88.9188 22.5575 89.1244 21.4238 89.5533 20.3678C89.9821 19.3118 90.6249 18.3565 91.441 17.5622C93.0837 15.9888 95.2684 15.1109 97.5405 15.1109C99.8126 15.1109 101.997 15.9888 103.64 17.5622C104.456 18.3565 105.099 19.3118 105.528 20.3678C105.957 21.4238 106.162 22.5575 106.132 23.6972C106.161 24.8381 105.954 25.9727 105.522 27.0289C105.091 28.0851 104.445 29.0398 103.626 29.8323H103.64ZM94.1343 27.4216C94.5708 27.8888 95.0983 28.2612 95.6842 28.5159C96.2701 28.7705 96.9019 28.9018 97.5405 28.9018C98.1791 28.9018 98.8109 28.7705 99.3968 28.5159C99.9827 28.2612 100.51 27.8888 100.947 27.4216C101.423 26.9286 101.795 26.3451 102.043 25.7054C102.29 25.0658 102.407 24.383 102.387 23.6972C102.408 23.0092 102.292 22.3239 102.044 21.6818C101.797 21.0396 101.424 20.4537 100.947 19.9585C100.504 19.496 99.9734 19.1281 99.3855 18.8767C98.7977 18.6253 98.1652 18.4957 97.5261 18.4957C96.887 18.4957 96.2545 18.6253 95.6666 18.8767C95.0788 19.1281 94.5478 19.496 94.1055 19.9585C93.6285 20.4537 93.2552 21.0396 93.0079 21.6818C92.7605 22.3239 92.644 23.0092 92.6652 23.6972C92.647 24.384 92.7664 25.0674 93.0162 25.7071C93.2661 26.3468 93.6414 26.9298 94.1199 27.4216H94.1343ZM122.392 29.8323C120.751 31.409 118.566 32.2892 116.293 32.2892C114.019 32.2892 111.834 31.409 110.193 29.8323C109.376 29.0386 108.733 28.0833 108.304 27.0272C107.875 25.9711 107.67 24.8371 107.701 23.6972C107.671 22.5575 107.877 21.4238 108.305 20.3678C108.734 19.3118 109.377 18.3565 110.193 17.5622C111.834 15.9855 114.019 15.1053 116.293 15.1053C118.566 15.1053 120.751 15.9855 122.392 17.5622C123.208 18.3565 123.851 19.3118 124.28 20.3678C124.709 21.4238 124.914 22.5575 124.884 23.6972C124.915 24.8371 124.71 25.9711 124.281 27.0272C123.852 28.0833 123.209 29.0386 122.392 29.8323ZM112.886 27.4216C113.323 27.8888 113.85 28.2612 114.436 28.5159C115.022 28.7705 115.654 28.9018 116.293 28.9018C116.931 28.9018 117.563 28.7705 118.149 28.5159C118.735 28.2612 119.262 27.8888 119.699 27.4216C120.175 26.9286 120.547 26.3451 120.795 25.7054C121.042 25.0658 121.159 24.383 121.139 23.6972C121.16 23.0092 121.044 22.3239 120.796 21.6818C120.549 21.0396 120.176 20.4537 119.699 19.9585C119.257 19.496 118.726 19.1281 118.138 18.8767C117.55 18.6253 116.917 18.4957 116.278 18.4957C115.639 18.4957 115.007 18.6253 114.419 18.8767C113.831 19.1281 113.3 19.496 112.858 19.9585C112.381 20.4537 112.007 21.0396 111.76 21.6818C111.513 22.3239 111.396 23.0092 111.417 23.6972C111.399 24.384 111.518 25.0674 111.768 25.7071C112.018 26.3468 112.393 26.9298 112.872 27.4216H112.886ZM134.721 39.9949C132.994 40.05 131.302 39.5098 129.925 38.4648C128.702 37.5436 127.739 36.3199 127.131 34.9136L130.414 33.5423C130.772 34.3827 131.331 35.1216 132.042 35.6932C132.803 36.3081 133.758 36.6306 134.735 36.6026C135.355 36.6404 135.975 36.5439 136.554 36.3197C137.133 36.0955 137.657 35.7489 138.091 35.3034C138.959 34.2543 139.387 32.9091 139.286 31.5502V30.3087H139.157C138.608 30.9621 137.915 31.4783 137.132 31.8166C136.35 32.1548 135.499 32.3058 134.649 32.2575C133.567 32.2608 132.497 32.0393 131.505 31.6069C130.514 31.1746 129.622 30.5408 128.888 29.7457C128.09 28.9569 127.461 28.0142 127.038 26.9745C126.614 25.9349 126.406 24.82 126.425 23.6972C126.405 22.5679 126.613 21.4463 127.036 20.3995C127.459 19.3527 128.089 18.4023 128.888 17.6055C129.621 16.807 130.511 16.1701 131.503 15.7352C132.495 15.3003 133.566 15.0769 134.649 15.0793C135.565 15.0776 136.47 15.2798 137.299 15.6711C138.016 15.9849 138.655 16.4531 139.171 17.0425H139.301V15.6711H142.873V31.0449C142.967 32.2611 142.812 33.4837 142.418 34.6379C142.024 35.7921 141.4 36.8536 140.583 37.7574C139.804 38.5039 138.884 39.0864 137.878 39.4707C136.871 39.855 135.797 40.0333 134.721 39.9949ZM134.98 28.9085C135.595 28.922 136.205 28.7997 136.768 28.5502C137.33 28.3007 137.831 27.9302 138.235 27.4649C139.124 26.4442 139.592 25.1233 139.546 23.7694C139.599 22.3927 139.131 21.0468 138.235 20.0018C137.832 19.5357 137.331 19.1646 136.769 18.9151C136.206 18.6655 135.595 18.5437 134.98 18.5582C134.348 18.5452 133.721 18.6672 133.14 18.9161C132.559 19.165 132.037 19.5351 131.61 20.0018C130.657 21.0092 130.139 22.3528 130.169 23.7406C130.155 24.4213 130.275 25.0982 130.522 25.7323C130.769 26.3665 131.139 26.9455 131.61 27.436C132.035 27.9072 132.556 28.2822 133.137 28.5361C133.718 28.79 134.346 28.9169 134.98 28.9085ZM149.224 6.53344V31.7667H145.465V6.53344H149.224ZM159.536 32.2864C158.411 32.3154 157.291 32.1111 156.248 31.6863C155.204 31.2616 154.26 30.6255 153.473 29.8179C152.674 29.0162 152.047 28.0603 151.629 27.0081C151.21 25.956 151.01 24.8295 151.039 23.6972C150.996 22.5622 151.182 21.4302 151.585 20.3687C151.989 19.3072 152.601 18.338 153.386 17.5189C154.126 16.7371 155.021 16.1189 156.013 15.7038C157.005 15.2886 158.073 15.0857 159.147 15.1081C160.136 15.0977 161.116 15.2892 162.028 15.6711C162.849 16.0035 163.598 16.4939 164.232 17.1147C164.775 17.6409 165.259 18.2268 165.672 18.8614C166.006 19.3971 166.29 19.9624 166.522 20.5503L166.91 21.5319L155.388 26.2812C155.737 27.0837 156.32 27.7615 157.06 28.2253C157.801 28.6892 158.664 28.9173 159.536 28.8796C160.385 28.8819 161.22 28.6637 161.96 28.2463C162.699 27.8288 163.318 27.2264 163.756 26.4977L166.637 28.4465C165.902 29.5006 164.961 30.3944 163.871 31.0738C162.576 31.8942 161.069 32.3158 159.536 32.2864ZM154.726 23.4374L162.388 20.2472C162.152 19.6846 161.73 19.2208 161.193 18.9335C160.591 18.5931 159.91 18.4187 159.219 18.4283C158.047 18.4587 156.935 18.9515 156.123 19.7997C155.637 20.2655 155.26 20.8331 155.019 21.462C154.777 22.0908 154.677 22.7654 154.726 23.4374ZM186.599 32.2864C185 32.314 183.412 32.0176 181.931 31.4149C180.449 30.8123 179.104 29.9157 177.977 28.7792C176.85 27.6426 175.964 26.2895 175.371 24.801C174.779 23.3125 174.492 21.7194 174.529 20.1172C174.492 18.5151 174.779 16.922 175.371 15.4335C175.964 13.945 176.85 12.5919 177.977 11.4553C179.104 10.3188 180.449 9.42224 181.931 8.81955C183.412 8.21687 185 7.92046 186.599 7.94812C188.217 7.89741 189.825 8.21383 191.304 8.87375C192.783 9.53366 194.094 10.52 195.139 11.7591L193.065 13.7801C192.298 12.8127 191.314 12.0406 190.193 11.5263C189.071 11.0121 187.845 10.7704 186.613 10.8208C185.427 10.794 184.248 11.0078 183.147 11.4494C182.045 11.891 181.044 12.5511 180.204 13.3903C179.33 14.2709 178.648 15.323 178.199 16.4807C177.75 17.6383 177.545 18.8764 177.597 20.1172C177.545 21.3581 177.75 22.5962 178.199 23.7538C178.648 24.9114 179.33 25.9636 180.204 26.8442C181.044 27.6833 182.045 28.3435 183.147 28.7851C184.248 29.2267 185.427 29.4405 186.613 29.4137C187.99 29.4292 189.352 29.1335 190.598 28.5487C191.845 27.9639 192.944 27.105 193.814 26.0358L195.888 28.1145C194.802 29.416 193.439 30.4568 191.899 31.1604C190.239 31.9287 188.427 32.3135 186.599 32.2864ZM201.462 31.7667H198.481V8.45336H201.462V31.7667ZM206.33 17.7354C207.892 16.1804 210.005 15.3077 212.206 15.3077C214.408 15.3077 216.521 16.1804 218.083 17.7354C218.847 18.5438 219.444 19.4957 219.839 20.5362C220.234 21.5767 220.421 22.6853 220.387 23.7983C220.421 24.9112 220.234 26.0199 219.839 27.0604C219.444 28.1009 218.847 29.0528 218.083 29.8612C216.521 31.4162 214.408 32.2889 212.206 32.2889C210.005 32.2889 207.892 31.4162 206.33 29.8612C205.566 29.0528 204.969 28.1009 204.574 27.0604C204.178 26.0199 203.992 24.9112 204.026 23.7983C203.992 22.6853 204.178 21.5767 204.574 20.5362C204.969 19.4957 205.566 18.5438 206.33 17.7354ZM208.548 27.9846C209.018 28.4822 209.584 28.8785 210.212 29.1493C210.84 29.4202 211.516 29.5599 212.199 29.5599C212.883 29.5599 213.559 29.4202 214.187 29.1493C214.815 28.8785 215.381 28.4822 215.85 27.9846C216.371 27.4242 216.776 26.7654 217.041 26.0467C217.305 25.328 217.424 24.5637 217.391 23.7983C217.424 23.0329 217.305 22.2686 217.041 21.5499C216.776 20.8312 216.371 20.1724 215.85 19.612C215.381 19.1144 214.815 18.7181 214.187 18.4472C213.559 18.1764 212.883 18.0367 212.199 18.0367C211.516 18.0367 210.84 18.1764 210.212 18.4472C209.584 18.7181 209.018 19.1144 208.548 19.612C208.027 20.1724 207.622 20.8312 207.358 21.5499C207.093 22.2686 206.974 23.0329 207.007 23.7983C206.978 24.5623 207.1 25.3244 207.367 26.0406C207.634 26.7567 208.041 27.4126 208.563 27.9702L208.548 27.9846ZM236.907 31.7667H234.026V29.5581H233.94C233.427 30.3969 232.702 31.0844 231.837 31.5502C230.94 32.0712 229.921 32.3452 228.885 32.3441C228.043 32.4018 227.199 32.2682 226.416 31.9533C225.633 31.6383 224.931 31.1502 224.362 30.5252C223.271 29.1421 222.723 27.4065 222.821 25.646V15.8299H225.802V25.0975C225.802 28.0712 227.113 29.5581 229.734 29.5581C230.317 29.5763 230.895 29.4548 231.421 29.2037C231.947 28.9526 232.406 28.5792 232.759 28.1145C233.532 27.1329 233.944 25.9146 233.926 24.6644V15.8299H236.907V31.7667ZM247.032 32.2864C246.02 32.2897 245.02 32.0734 244.1 31.6522C243.181 31.2311 242.363 30.6151 241.703 29.8468C240.21 28.1938 239.41 26.0273 239.47 23.7983C239.41 21.5693 240.21 19.4028 241.703 17.7498C242.363 16.9815 243.181 16.3655 244.1 15.9443C245.02 15.5232 246.02 15.3069 247.032 15.3102C248.165 15.2923 249.284 15.5604 250.287 16.0897C251.168 16.5341 251.914 17.207 252.447 18.0385H252.577L252.447 15.8299V8.45336H255.429V31.7667H252.548V29.5581H252.418C251.885 30.3896 251.139 31.0625 250.258 31.5069C249.264 32.0315 248.155 32.2995 247.032 32.2864ZM247.522 29.5581C248.195 29.5679 248.864 29.434 249.482 29.1652C250.1 28.8964 250.654 28.4989 251.108 27.999C252.121 26.8432 252.638 25.3339 252.548 23.7983C252.638 22.2627 252.121 20.7534 251.108 19.5976C250.652 19.095 250.096 18.6935 249.476 18.4187C248.856 18.144 248.185 18.0021 247.507 18.0021C246.829 18.0021 246.159 18.144 245.539 18.4187C244.919 18.6935 244.363 19.095 243.906 19.5976C243.403 20.166 243.017 20.8285 242.77 21.5468C242.523 22.2652 242.42 23.0254 242.466 23.7839C242.42 24.5423 242.523 25.3025 242.77 26.0209C243.017 26.7393 243.403 27.4017 243.906 27.9702C244.36 28.479 244.918 28.884 245.542 29.158C246.165 29.432 246.841 29.5684 247.522 29.5581Z" fill="white"/>
</svg>
