<svg width="183" height="40" viewBox="0 0 183 40" fill="none" xmlns="http://www.w3.org/2000/svg">
<path d="M52.507 27.3194V12.9746H56.3028V18.3152H60.5843V12.9746H64.3801V27.3194H60.5843V21.6257H56.3028V27.3194H52.507ZM70.5955 27.5842C69.389 27.5842 68.5136 27.1796 67.9693 26.3705C67.4249 25.5465 67.1528 24.4505 67.1528 23.0821V16.285H70.9486V22.5967C70.9486 23.303 71.037 23.7736 71.2134 24.009C71.4047 24.2444 71.6843 24.3621 72.0522 24.3621C72.4051 24.3621 72.6995 24.2886 72.9349 24.1415C73.1703 23.9944 73.4057 23.7442 73.6411 23.3911V16.285H77.437V27.3194H74.3472L74.0824 25.863H73.994C73.5528 26.3925 73.0599 26.8119 72.5155 27.1209C71.9859 27.4298 71.3459 27.5842 70.5955 27.5842ZM84.0161 31.8657C83.1776 31.8657 82.4051 31.77 81.6988 31.5788C80.9928 31.4021 80.4263 31.1152 79.9997 30.718C79.5876 30.3209 79.3818 29.7911 79.3818 29.129C79.3818 28.2611 79.8965 27.5548 80.9265 27.0105V26.9221C80.6445 26.7136 80.3984 26.46 80.1982 26.1719C80.007 25.863 79.9113 25.4802 79.9113 25.0242C79.9113 24.6417 80.0217 24.2665 80.2424 23.8988C80.4778 23.5309 80.7795 23.2146 81.1472 22.9498V22.8615C80.7499 22.5967 80.397 22.2215 80.088 21.7359C79.7936 21.2357 79.6465 20.6692 79.6465 20.0367C79.6465 19.1244 79.8672 18.3742 80.3086 17.7857C80.7647 17.1823 81.3532 16.7411 82.074 16.4615C82.7951 16.1673 83.5601 16.02 84.3693 16.02C85.0165 16.02 85.6051 16.1084 86.1347 16.285H90.2397V19.0215H88.6507C88.6947 19.154 88.7315 19.3232 88.7609 19.529C88.8051 19.735 88.8272 19.9484 88.8272 20.169C88.8272 21.0371 88.6286 21.7434 88.2313 22.2877C87.834 22.8173 87.2972 23.2073 86.6203 23.4573C85.9434 23.7075 85.1932 23.8325 84.3693 23.8325C84.0015 23.8325 83.5895 23.7811 83.1334 23.678C82.9568 23.8398 82.8686 24.0532 82.8686 24.318C82.8686 24.5534 82.9863 24.7225 83.2217 24.8257C83.4717 24.9286 83.869 24.98 84.4134 24.98H86.0686C87.4515 24.98 88.5182 25.2082 89.2686 25.6642C90.0336 26.1057 90.4161 26.8338 90.4161 27.849C90.4161 28.6436 90.1513 29.3423 89.6217 29.9457C89.1067 30.5488 88.3711 31.0196 87.4147 31.358C86.4584 31.6965 85.3255 31.8657 84.0161 31.8657ZM84.3693 21.5815C84.7224 21.5815 85.0092 21.4565 85.2299 21.2063C85.4507 20.9563 85.5609 20.5663 85.5609 20.0367C85.5609 19.5217 85.4507 19.1465 85.2299 18.9111C85.0092 18.6611 84.7224 18.5361 84.3693 18.5361C84.0161 18.5361 83.7292 18.6611 83.5086 18.9111C83.2878 19.1465 83.1776 19.5217 83.1776 20.0367C83.1776 20.5663 83.2878 20.9563 83.5086 21.2063C83.7292 21.4565 84.0161 21.5815 84.3693 21.5815ZM84.634 29.5263C85.252 29.5263 85.767 29.4307 86.1788 29.2394C86.5909 29.0627 86.7967 28.82 86.7967 28.5111C86.7967 28.2169 86.6645 28.033 86.3997 27.9594C86.1495 27.8859 85.789 27.849 85.3182 27.849H84.4576C84.0161 27.849 83.6778 27.8344 83.4424 27.8048C83.2218 27.7902 83.0305 27.7609 82.8686 27.7167C82.6038 27.9815 82.4713 28.2463 82.4713 28.5111C82.4713 28.8642 82.6699 29.1217 83.0672 29.2836C83.4793 29.4455 84.0015 29.5263 84.634 29.5263ZM96.0636 31.8657C95.2249 31.8657 94.4526 31.77 93.7463 31.5788C93.0401 31.4021 92.4736 31.1152 92.047 30.718C91.6351 30.3209 91.429 29.7911 91.429 29.129C91.429 28.2611 91.944 27.5548 92.9738 27.0105V26.9221C92.6918 26.7136 92.4457 26.46 92.2457 26.1719C92.0542 25.863 91.9586 25.4802 91.9586 25.0242C91.9586 24.6417 92.069 24.2665 92.2897 23.8988C92.5251 23.5309 92.8268 23.2146 93.1947 22.9498V22.8615C92.7974 22.5967 92.4442 22.2215 92.1353 21.7359C91.8409 21.2357 91.6938 20.6692 91.6938 20.0367C91.6938 19.1244 91.9147 18.3742 92.3559 17.7857C92.812 17.1823 93.4005 16.7411 94.1215 16.4615C94.8424 16.1673 95.6074 16.02 96.4165 16.02C97.064 16.02 97.6526 16.1084 98.1822 16.285H102.287V19.0215H100.698C100.742 19.154 100.779 19.3232 100.808 19.529C100.852 19.735 100.874 19.9484 100.874 20.169C100.874 21.0371 100.676 21.7434 100.279 22.2877C99.8815 22.8173 99.3445 23.2073 98.6676 23.4573C97.9909 23.7075 97.2405 23.8325 96.4165 23.8325C96.0488 23.8325 95.637 23.7811 95.1807 23.678C95.0042 23.8398 94.9159 24.0532 94.9159 24.318C94.9159 24.5534 95.0336 24.7225 95.269 24.8257C95.5193 24.9286 95.9163 24.98 96.4607 24.98H98.1159C99.4988 24.98 100.565 25.2082 101.316 25.6642C102.081 26.1057 102.463 26.8338 102.463 27.849C102.463 28.6436 102.199 29.3423 101.669 29.9457C101.154 30.5488 100.418 31.0196 99.4622 31.358C98.5059 31.6965 97.373 31.8657 96.0636 31.8657ZM96.4165 21.5815C96.7697 21.5815 97.0565 21.4565 97.2774 21.2063C97.498 20.9563 97.6084 20.5663 97.6084 20.0367C97.6084 19.5217 97.498 19.1465 97.2774 18.9111C97.0565 18.6611 96.7697 18.5361 96.4165 18.5361C96.0636 18.5361 95.7765 18.6611 95.5559 18.9111C95.3353 19.1465 95.2249 19.5217 95.2249 20.0367C95.2249 20.5663 95.3353 20.9563 95.5559 21.2063C95.7765 21.4565 96.0636 21.5815 96.4165 21.5815ZM96.6815 29.5263C97.2995 29.5263 97.8142 29.4307 98.2263 29.2394C98.6382 29.0627 98.8442 28.82 98.8442 28.5111C98.8442 28.2169 98.7118 28.033 98.447 27.9594C98.197 27.8859 97.8363 27.849 97.3655 27.849H96.5049C96.0636 27.849 95.7251 27.8344 95.4897 27.8048C95.269 27.7902 95.0778 27.7609 94.9159 27.7167C94.6511 27.9815 94.5186 28.2463 94.5186 28.5111C94.5186 28.8642 94.7174 29.1217 95.1147 29.2836C95.5265 29.4455 96.0488 29.5263 96.6815 29.5263ZM104.094 27.3194V16.285H107.89V27.3194H104.094ZM105.992 14.9167C105.374 14.9167 104.874 14.7475 104.492 14.4092C104.109 14.0561 103.918 13.5925 103.918 13.0188C103.918 12.445 104.109 11.9888 104.492 11.6504C104.874 11.2973 105.374 11.1208 105.992 11.1208C106.61 11.1208 107.11 11.2973 107.493 11.6504C107.875 11.9888 108.067 12.445 108.067 13.0188C108.067 13.5925 107.875 14.0561 107.493 14.4092C107.11 14.7475 106.61 14.9167 105.992 14.9167ZM110.452 27.3194V16.285H113.542L113.807 17.609H113.895C114.336 17.1823 114.837 16.8146 115.395 16.5057C115.969 16.1819 116.631 16.02 117.382 16.02C118.603 16.02 119.478 16.4321 120.008 17.2561C120.552 18.0652 120.824 19.154 120.824 20.5221V27.3194H117.029V21.0077C117.029 20.3015 116.94 19.8307 116.764 19.5952C116.587 19.3598 116.308 19.2421 115.925 19.2421C115.572 19.2421 115.278 19.3157 115.042 19.463C114.807 19.61 114.542 19.8161 114.248 20.0809V27.3194H110.452ZM127.313 31.8657C126.475 31.8657 125.702 31.77 124.996 31.5788C124.29 31.4021 123.724 31.1152 123.297 30.718C122.885 30.3209 122.679 29.7911 122.679 29.129C122.679 28.2611 123.194 27.5548 124.224 27.0105V26.9221C123.942 26.7136 123.696 26.46 123.495 26.1719C123.304 25.863 123.209 25.4802 123.209 25.0242C123.209 24.6417 123.319 24.2665 123.54 23.8988C123.775 23.5309 124.077 23.2146 124.444 22.9498V22.8615C124.047 22.5967 123.694 22.2215 123.385 21.7359C123.091 21.2357 122.944 20.6692 122.944 20.0367C122.944 19.1244 123.164 18.3742 123.606 17.7857C124.062 17.1823 124.65 16.7411 125.371 16.4615C126.092 16.1673 126.857 16.02 127.667 16.02C128.314 16.02 128.902 16.1084 129.432 16.285H133.537V19.0215H131.948C131.992 19.154 132.029 19.3232 132.058 19.529C132.102 19.735 132.124 19.9484 132.124 20.169C132.124 21.0371 131.926 21.7434 131.529 22.2877C131.131 22.8173 130.594 23.2073 129.918 23.4573C129.241 23.7075 128.49 23.8325 127.667 23.8325C127.299 23.8325 126.887 23.7811 126.431 23.678C126.254 23.8398 126.166 24.0532 126.166 24.318C126.166 24.5534 126.284 24.7225 126.519 24.8257C126.769 24.9286 127.166 24.98 127.711 24.98H129.366C130.749 24.98 131.815 25.2082 132.566 25.6642C133.331 26.1057 133.713 26.8338 133.713 27.849C133.713 28.6436 133.449 29.3423 132.919 29.9457C132.404 30.5488 131.668 31.0196 130.712 31.358C129.756 31.6965 128.623 31.8657 127.313 31.8657ZM127.667 21.5815C128.02 21.5815 128.307 21.4565 128.527 21.2063C128.748 20.9563 128.858 20.5663 128.858 20.0367C128.858 19.5217 128.748 19.1465 128.527 18.9111C128.307 18.6611 128.02 18.5361 127.667 18.5361C127.313 18.5361 127.027 18.6611 126.806 18.9111C126.585 19.1465 126.475 19.5217 126.475 20.0367C126.475 20.5663 126.585 20.9563 126.806 21.2063C127.027 21.4565 127.313 21.5815 127.667 21.5815ZM127.931 29.5263C128.549 29.5263 129.064 29.4307 129.476 29.2394C129.888 29.0627 130.094 28.82 130.094 28.5111C130.094 28.2169 129.962 28.033 129.697 27.9594C129.447 27.8859 129.086 27.849 128.615 27.849H127.755C127.313 27.849 126.975 27.8344 126.74 27.8048C126.519 27.7902 126.328 27.7609 126.166 27.7167C125.901 27.9815 125.769 28.2463 125.769 28.5111C125.769 28.8642 125.967 29.1217 126.364 29.2836C126.776 29.4455 127.299 29.5263 127.931 29.5263ZM140.071 27.3194V12.9746H149.428V16.1525H143.867V18.889H148.634V22.0669H143.867V27.3194H140.071ZM153.579 27.5842C152.888 27.5842 152.292 27.4298 151.792 27.1209C151.314 26.8059 150.927 26.3725 150.667 25.863C150.402 25.348 150.269 24.7888 150.269 24.1857C150.269 23.038 150.74 22.1407 151.682 21.4932C152.623 20.8311 154.153 20.3898 156.272 20.169C156.184 19.404 155.669 19.0215 154.727 19.0215C154.33 19.0215 153.91 19.1023 153.469 19.2642C153.028 19.4113 152.52 19.6394 151.946 19.9484L150.622 17.4767C151.402 17.0059 152.189 16.6455 152.984 16.3952C153.791 16.1455 154.632 16.019 155.477 16.02C156.919 16.02 158.045 16.4321 158.854 17.2561C159.663 18.0652 160.068 19.3746 160.068 21.1842V27.3194H156.978L156.713 26.26H156.625C156.184 26.6573 155.713 26.9811 155.213 27.2311C154.727 27.4665 154.183 27.5842 153.579 27.5842ZM154.904 24.6711C155.213 24.6711 155.47 24.6048 155.676 24.4725C155.882 24.3255 156.081 24.1415 156.272 23.9209V22.42C155.374 22.5525 154.749 22.7511 154.396 23.0159C154.058 23.2809 153.888 23.5677 153.888 23.8767C153.888 24.4063 154.227 24.6711 154.904 24.6711ZM167.53 27.5842C166.485 27.5842 165.544 27.3561 164.705 26.9C163.867 26.444 163.197 25.7892 162.697 24.9359C162.211 24.068 161.969 23.0234 161.969 21.8021C161.969 20.5811 162.241 19.5438 162.785 18.6905C163.344 17.8223 164.073 17.1605 164.97 16.7042C165.867 16.2482 166.838 16.02 167.883 16.02C168.545 16.02 169.141 16.1232 169.671 16.329C170.215 16.535 170.693 16.8146 171.105 17.1677L169.34 19.5952C169.104 19.3894 168.891 19.2496 168.7 19.1761C168.51 19.1025 168.308 19.0652 168.104 19.0657C167.398 19.0657 166.846 19.3157 166.449 19.8161C166.051 20.3015 165.853 20.9636 165.853 21.8021C165.853 22.6409 166.059 23.3102 166.471 23.8105C166.883 24.2959 167.383 24.5388 167.971 24.5388C168.28 24.5388 168.582 24.4725 168.876 24.34C169.178 24.1973 169.466 24.0273 169.737 23.8325L171.193 26.3042C170.649 26.7898 170.046 27.1282 169.384 27.3194C168.722 27.4959 168.104 27.5842 167.53 27.5842ZM177.404 27.5842C176.33 27.5842 175.359 27.3561 174.491 26.9C173.637 26.444 172.96 25.7892 172.46 24.9359C171.96 24.068 171.71 23.0234 171.71 21.8021C171.71 20.6105 171.96 19.588 172.46 18.7346C172.975 17.8665 173.637 17.1971 174.447 16.7263C175.256 16.2555 176.109 16.02 177.007 16.02C178.095 16.02 178.993 16.263 179.699 16.7484C180.42 17.2192 180.949 17.8592 181.288 18.6684C181.641 19.4775 181.818 20.375 181.818 21.3609C181.818 21.6844 181.795 22.0009 181.751 22.3098C181.722 22.604 181.692 22.8173 181.663 22.9498H175.373C175.55 23.6119 175.866 24.0752 176.322 24.34C176.778 24.5902 177.315 24.7152 177.933 24.7152C178.64 24.7152 179.39 24.4946 180.184 24.0532L181.42 26.3042C180.832 26.7161 180.17 27.0325 179.434 27.2532C178.698 27.4738 178.022 27.5842 177.404 27.5842ZM175.329 20.478H178.595C178.595 20.0513 178.485 19.6836 178.264 19.3746C178.058 19.0509 177.669 18.889 177.095 18.889C176.683 18.889 176.315 19.0142 175.991 19.2642C175.668 19.5144 175.447 19.919 175.329 20.478Z" fill="white"/>
<path d="M44.348 29.4217C44.2362 28.9994 44.0549 28.5988 43.8118 28.2359C43.8639 28.0446 43.9035 27.8504 43.9301 27.6544C44.1026 26.4094 43.6712 25.2696 42.8576 24.3875C42.417 23.9059 41.9447 23.5879 41.4445 23.3927C41.7728 21.9879 41.9391 20.5502 41.9399 19.1075C41.9399 18.4488 41.9026 17.8034 41.8401 17.1675C41.8074 16.85 41.768 16.5332 41.722 16.2173C41.5787 15.2854 41.3662 14.3655 41.0862 13.4652C40.9026 12.8737 40.6903 12.2915 40.4501 11.7207C40.0899 10.8753 39.6693 10.0569 39.1916 9.2719C38.878 8.74974 38.5368 8.24476 38.1691 7.7592C37.9889 7.51399 37.8012 7.27457 37.6057 7.04128C37.027 6.33782 36.3982 5.67726 35.7239 5.06482C35.5001 4.85895 35.2699 4.66018 35.0335 4.46878C34.8007 4.27465 34.5628 4.08674 34.3201 3.90524C33.8316 3.54165 33.3266 3.20053 32.807 2.88295C29.936 1.1392 26.5691 0.139404 22.9705 0.139404C12.4933 0.139404 4.00139 8.63149 4.00139 19.1084C4.00112 20.5692 4.17037 22.025 4.50577 23.4467C4.05577 23.6421 3.62431 23.9465 3.22452 24.3871C2.41119 25.2686 1.97952 26.4044 2.15223 27.6492C2.17827 27.8471 2.21785 28.0429 2.27035 28.2354C2.02737 28.5986 1.84619 28.9994 1.7341 29.4217C1.4841 30.3719 1.56639 31.2288 1.8841 31.9794C1.53889 32.9609 1.62514 34.0059 2.07494 34.9144C2.40202 35.5779 2.87014 36.0911 3.44702 36.55C4.13306 37.0952 4.99181 37.5588 6.02785 38.0032C7.26369 38.5302 8.77202 39.0254 9.45806 39.2071C11.2301 39.6661 12.9293 39.9569 14.6516 39.9709C17.1049 39.9938 19.2178 39.4167 20.7307 37.9402C21.4739 38.0313 22.2218 38.0769 22.9705 38.0767C23.7616 38.075 24.5518 38.025 25.3368 37.9275C26.846 39.4134 28.967 39.9957 31.4295 39.9721C33.1514 39.9586 34.8505 39.6677 36.618 39.2082C37.3087 39.0265 38.8166 38.5313 40.053 38.0044C41.0891 37.559 41.9476 37.0957 42.6385 36.5511C43.211 36.0923 43.6787 35.579 44.006 34.9154C44.4603 34.0069 44.5422 32.9619 44.2014 31.9804C44.5162 31.2298 44.5978 30.3711 44.348 29.4217ZM42.5899 31.9159C42.938 32.5765 42.9603 33.3229 42.653 34.0182C42.1872 35.0719 41.0301 35.9017 38.7828 36.7927C37.3855 37.3471 36.1057 37.7013 36.0945 37.7046C34.2462 38.184 32.5745 38.4273 31.1274 38.4273C28.7312 38.4273 26.9482 37.7663 25.8174 36.4604C23.9051 36.7861 21.9524 36.7971 20.0366 36.4932C18.9045 37.7773 17.1314 38.4273 14.7553 38.4273C13.3081 38.4273 11.6366 38.184 9.78827 37.7046C9.77681 37.7013 8.49785 37.3471 7.09994 36.7927C4.85264 35.9017 3.69535 35.0723 3.22973 34.0182C2.92244 33.3229 2.94473 32.5765 3.29285 31.9159C3.32514 31.8546 3.35952 31.7946 3.39639 31.7369C3.18773 31.4236 3.04779 31.0694 2.98573 30.6982C2.92369 30.3269 2.94096 29.9465 3.03639 29.5823C3.17473 29.0569 3.46056 28.6198 3.84848 28.3059C3.66169 27.9988 3.53908 27.6571 3.48806 27.3013C3.37639 26.5275 3.63306 25.7548 4.21098 25.125C4.66077 24.6348 5.29681 24.365 6.00119 24.365H6.01994C5.48896 22.6632 5.21971 20.8904 5.22139 19.1077C5.22139 9.3844 13.1041 1.50149 22.8285 1.50149C32.553 1.50149 40.4355 9.38378 40.4355 19.1077C40.4368 20.8952 40.1657 22.6725 39.6316 24.3784C39.7166 24.37 39.7999 24.3657 39.8816 24.3657C40.5857 24.3657 41.222 24.6352 41.6718 25.1254C42.2493 25.7548 42.5066 26.5282 42.3947 27.3017C42.3437 27.6575 42.2212 27.9994 42.0343 28.3065C42.4222 28.6202 42.708 29.0573 42.8464 29.5829C42.9416 29.9471 42.9589 30.3273 42.8968 30.6988C42.8347 31.07 42.6949 31.424 42.4864 31.7375C42.5232 31.7946 42.558 31.8546 42.5899 31.9159Z" fill="white"/>
<path d="M42.4864 31.7375C42.695 31.424 42.8348 31.07 42.8969 30.6988C42.9589 30.3273 42.9417 29.9471 42.8464 29.583C42.7081 29.0575 42.4223 28.6205 42.0344 28.3065C42.221 27.9994 42.3437 27.6578 42.3948 27.3019C42.5064 26.5282 42.2498 25.7555 41.6719 25.1257C41.2221 24.6355 40.5858 24.3657 39.8817 24.3657C39.7998 24.3657 39.7167 24.3698 39.6317 24.3784C40.1652 22.6725 40.4358 20.8952 40.4342 19.108C40.4342 9.38481 32.5514 1.50171 22.8279 1.50171C13.1044 1.50171 5.22082 9.38398 5.22082 19.108C5.21913 20.8907 5.48838 22.6634 6.01936 24.3653H6.00061C5.29644 24.3653 4.6604 24.635 4.21061 25.1253C3.63311 25.7546 3.37603 26.5278 3.48769 27.3015C3.53867 27.6573 3.66128 27.999 3.84811 28.3061C3.46019 28.62 3.17436 29.0571 3.03623 29.5828C2.94086 29.9469 2.92365 30.3273 2.98578 30.6988C3.0479 31.07 3.18792 31.4242 3.39665 31.7375C3.35936 31.7953 3.32519 31.8552 3.29311 31.9165C2.94519 32.5771 2.92269 33.3236 3.22998 34.0188C3.69561 35.0723 4.8529 35.9025 7.10019 36.7934C8.49748 37.3478 9.77728 37.7019 9.78853 37.7053C11.6369 38.1846 13.3083 38.4282 14.7554 38.4282C17.1317 38.4282 18.9046 37.7782 20.0369 36.4938C21.9527 36.7978 23.9054 36.7867 25.8177 36.4611C26.9483 37.7669 28.7314 38.4282 31.1277 38.4282C32.5748 38.4282 34.2464 38.1846 36.0948 37.7053C36.106 37.7019 37.3852 37.3478 38.7831 36.7934C41.0304 35.9025 42.1877 35.0723 42.6533 34.0188C42.9606 33.3236 42.9383 32.5771 42.5902 31.9165C42.5583 31.8546 42.5233 31.7948 42.4864 31.7375ZM19.2267 34.4834C19.1292 34.654 19.0248 34.8205 18.9135 34.9823C18.6208 35.4109 18.2358 35.7382 17.7892 35.9817C16.9348 36.4473 15.8537 36.6102 14.7552 36.6102C13.0202 36.6102 11.2414 36.2042 10.2444 35.9455C10.1954 35.9328 4.13311 34.2205 4.90061 32.763C5.02978 32.518 5.24248 32.42 5.50999 32.42C6.59061 32.42 8.55834 34.0292 9.40417 34.0292C9.59292 34.0292 9.72624 33.9486 9.78061 33.7525C10.141 32.4598 4.3029 31.9165 4.79457 30.0448C4.88144 29.7136 5.11665 29.5792 5.44769 29.5792C6.87623 29.579 10.0829 32.0915 10.7535 32.0915C10.805 32.0915 10.8419 32.0765 10.8619 32.0448L10.8706 32.0305C11.1852 31.5107 11.0048 31.1328 8.84811 29.8119L8.64103 29.6859C6.26811 28.2494 4.60228 27.3853 5.54978 26.354C5.65873 26.2348 5.81311 26.1821 6.00082 26.1821C6.22353 26.1821 6.4929 26.2567 6.78957 26.3815C8.0429 26.91 9.77998 28.3515 10.5056 28.9803C10.7196 29.1665 10.8456 29.2803 10.8456 29.2803C10.8456 29.2803 11.7644 30.2357 12.32 30.2357C12.4479 30.2357 12.5562 30.1855 12.6298 30.0607C13.0239 29.3965 8.97082 26.3252 8.74228 25.0582C8.58749 24.1994 8.85103 23.7646 9.33873 23.7646C9.5704 23.7646 9.85332 23.8632 10.1656 24.0613C11.1344 24.6763 13.0048 27.8905 13.6896 29.1407C13.9192 29.5598 14.311 29.7369 14.6642 29.7369C15.3648 29.7369 15.9125 29.0405 14.7283 28.1555C12.9485 26.8236 13.5731 24.6469 14.4225 24.513C14.4587 24.5073 14.4954 24.5044 14.5319 24.5042C15.3044 24.5042 15.6452 25.8355 15.6452 25.8355C15.6452 25.8355 16.6437 28.3434 18.3594 30.0575C19.9162 31.6136 20.1335 32.8907 19.2267 34.4834ZM24.7744 34.7771L24.6854 34.7878L24.5335 34.8053C24.4537 34.8134 24.3739 34.8213 24.2937 34.8288L24.2154 34.8359L24.1442 34.8419L24.0427 34.85C24.0054 34.8528 23.9681 34.8557 23.9308 34.858L23.8192 34.8655L23.7946 34.8669L23.7067 34.8721L23.6694 34.874L23.5652 34.8792L23.4442 34.8842L23.3342 34.888L23.2608 34.89H23.2237C23.2008 34.89 23.1781 34.8913 23.1552 34.8915H23.1187C23.0958 34.8915 23.0731 34.8915 23.0502 34.8928L22.9571 34.8938H22.8267C22.7244 34.8938 22.6225 34.8928 22.5206 34.8909L22.4381 34.889C22.4148 34.889 22.3912 34.8877 22.3679 34.8871L22.2806 34.8844L22.1719 34.8803L22.0742 34.8761L22.0487 34.875L21.9556 34.87C21.9298 34.8686 21.9039 34.8673 21.8783 34.8657L21.8181 34.8621C21.7425 34.8573 21.6669 34.8519 21.5912 34.8461L21.5121 34.8398L21.4121 34.8313L21.2952 34.8205C21.23 34.8144 21.1648 34.8077 21.0996 34.8005H21.0964C22.0485 32.6765 21.5671 30.693 19.6431 28.7705C18.3814 27.5105 17.5419 25.6494 17.3679 25.2409C17.0154 24.0315 16.0823 22.6871 14.5329 22.6871C14.4019 22.6873 14.2712 22.6978 14.1419 22.7182C13.4629 22.8248 12.8696 23.2157 12.4462 23.8036C11.9889 23.2346 11.5442 22.7823 11.1421 22.5267C10.5358 22.1425 9.93103 21.9475 9.34144 21.9475C8.60603 21.9475 7.94832 22.2496 7.48998 22.7975L7.47853 22.8115L7.45269 22.703L7.45165 22.6984C7.36449 22.3255 7.29126 21.9492 7.23207 21.5709C7.23207 21.5682 7.23207 21.5657 7.23082 21.5632L7.2179 21.4775C7.21092 21.4313 7.20411 21.3848 7.19748 21.3386C7.19207 21.3 7.18665 21.2615 7.18165 21.2232C7.17665 21.1848 7.17123 21.1463 7.16665 21.1078C7.16165 21.069 7.15707 21.0305 7.15248 20.9919C7.14809 20.9553 7.14386 20.9186 7.13978 20.8819L7.13855 20.8725C7.11976 20.7034 7.10365 20.534 7.09019 20.3644L7.0829 20.2663C7.08082 20.2394 7.07894 20.2123 7.07728 20.185C7.07728 20.1788 7.07644 20.1723 7.07603 20.1665L7.06917 20.0578C7.06667 20.0184 7.06478 19.979 7.06269 19.9396C7.06061 19.9005 7.05853 19.8611 7.05686 19.8215L7.05269 19.7184L7.05144 19.6871L7.04832 19.5917L7.04605 19.5109C7.04605 19.4786 7.04457 19.4461 7.04394 19.4138L7.04228 19.3119C7.04186 19.278 7.04228 19.2442 7.04144 19.2102C7.0404 19.1761 7.04144 19.1421 7.04144 19.108C7.04144 10.3888 14.1104 3.31981 22.8304 3.31981C31.5504 3.31981 38.6192 10.3884 38.6192 19.108V19.3119C38.6192 19.3459 38.6183 19.38 38.6175 19.4138C38.6175 19.4421 38.6164 19.4698 38.6156 19.4982C38.6156 19.5234 38.6146 19.5484 38.6135 19.5727C38.6135 19.6046 38.6117 19.6363 38.6106 19.6682V19.6709C38.6079 19.74 38.605 19.8092 38.6021 19.8784L38.6008 19.9013L38.5954 20.0046L38.5904 20.0865C38.5787 20.2805 38.5635 20.4744 38.545 20.668V20.6707C38.5417 20.7069 38.5379 20.7434 38.5339 20.7796C38.5248 20.864 38.5154 20.9484 38.506 21.0328L38.4954 21.1175L38.4823 21.2171C38.4777 21.2536 38.4727 21.2898 38.4675 21.3261C38.4619 21.3667 38.4558 21.4071 38.45 21.4475L38.4354 21.543L38.4183 21.6513C38.4125 21.6873 38.4067 21.7232 38.3998 21.7592C38.3927 21.795 38.3873 21.8309 38.381 21.8669C38.3685 21.9386 38.3556 22.01 38.3417 22.0815C38.3139 22.2238 38.285 22.3657 38.2544 22.5073C38.2467 22.5425 38.2387 22.578 38.2306 22.6132C37.7862 22.1813 37.1979 21.9461 36.5487 21.9461C35.9598 21.9461 35.3544 22.1409 34.7483 22.5253C34.346 22.7807 33.9017 23.2332 33.4439 23.8021C33.02 23.214 32.4267 22.8234 31.7485 22.7165C31.6192 22.6963 31.4883 22.6859 31.3573 22.6857C29.8075 22.6857 28.875 24.03 28.5223 25.2394C28.3475 25.648 27.5079 27.5088 26.2448 28.7709C24.3223 30.6871 23.8371 32.6619 24.7744 34.7771ZM41.0744 30.5255L41.0681 30.544C41.0637 30.5559 41.0594 30.5677 41.0546 30.5794C41.0471 30.5971 41.0392 30.6144 41.0308 30.6317C41.0106 30.673 40.9877 30.713 40.9625 30.7513C40.9277 30.8032 40.8896 30.8528 40.8481 30.8994C40.8385 30.9103 40.8294 30.9209 40.8185 30.9315C40.8039 30.9475 40.7883 30.9632 40.7729 30.9788C40.4923 31.2569 40.0648 31.5005 39.5814 31.7242C39.5267 31.749 39.4712 31.7738 39.415 31.7986L39.3592 31.8234C39.3219 31.8398 39.2848 31.8563 39.2456 31.8723C39.2075 31.8886 39.1692 31.9046 39.1308 31.9205L39.0146 31.9686C38.7427 32.0805 38.4642 32.1869 38.1923 32.2923L38.0762 32.3373L37.9612 32.3823C37.885 32.4121 37.8096 32.4419 37.7352 32.4717L37.6246 32.5163L37.516 32.5609L37.4625 32.5832C37.4271 32.5982 37.3921 32.6127 37.3575 32.6277C36.5579 32.9707 35.9829 33.3196 36.1037 33.7528C36.1071 33.765 36.1108 33.7767 36.115 33.788C36.1258 33.82 36.1406 33.8505 36.1589 33.8788C36.1698 33.8959 36.1823 33.9119 36.1962 33.9265C36.3383 34.074 36.5969 34.0507 36.9229 33.9336C36.9494 33.924 36.9764 33.9138 37.0037 33.903C37.0225 33.8959 37.041 33.8884 37.0598 33.8809L37.0879 33.869C37.1625 33.8373 37.2414 33.8021 37.3223 33.7636C37.3425 33.7542 37.3629 33.745 37.3833 33.7342C37.7819 33.5394 38.2337 33.2767 38.6821 33.0378C38.7508 33.0005 38.8198 32.9648 38.8883 32.9294C39.0004 32.8713 39.1135 32.8153 39.2277 32.7617C39.6523 32.5621 40.0512 32.4205 40.3723 32.4205C40.5227 32.4205 40.6558 32.4513 40.7664 32.5221L40.785 32.5344C40.841 32.574 40.8898 32.6225 40.9296 32.6784C40.9387 32.6915 40.9483 32.705 40.9564 32.719C40.9652 32.7334 40.9735 32.7482 40.9814 32.7632C41.14 33.064 41.0073 33.3759 40.6969 33.6815C40.3987 33.9748 39.935 34.2625 39.4077 34.529C39.3687 34.5488 39.3294 34.5686 39.2898 34.5878C37.7208 35.3582 35.6667 35.9384 35.6379 35.9457C35.0904 36.0875 34.3075 36.274 33.4256 36.4134L33.295 36.4336L33.2737 36.4367C33.0737 36.4667 32.8731 36.4932 32.6721 36.5161L32.6535 36.518C32.2879 36.5596 31.9129 36.5898 31.5373 36.6025H31.5316C31.3966 36.6075 31.2619 36.6098 31.1269 36.6098H30.9714C30.7656 36.6069 30.56 36.5978 30.3548 36.5819C30.35 36.5819 30.345 36.5819 30.34 36.5809C30.2667 36.5753 30.1931 36.5684 30.12 36.5603C29.9941 36.5467 29.8685 36.53 29.7433 36.5105C29.6946 36.5023 29.6425 36.4938 29.5923 36.485C29.5694 36.4809 29.5467 36.4767 29.5239 36.4721L29.5185 36.4711C29.4462 36.4573 29.3744 36.4421 29.3027 36.4257C29.2612 36.4163 29.2196 36.4069 29.1785 36.3959L29.1539 36.3894C29.1335 36.3844 29.1135 36.379 29.0935 36.3736L29.0825 36.3707L29.0181 36.3521C28.9948 36.3455 28.9717 36.3386 28.9483 36.3317L28.94 36.3292L28.8794 36.3107C28.8564 36.3036 28.8337 36.2961 28.811 36.2888C28.7923 36.2825 28.7737 36.2761 28.755 36.27L28.7139 36.2557C28.6744 36.2419 28.6352 36.2273 28.596 36.2123L28.5589 36.198L28.5283 36.1857C28.4694 36.1619 28.4106 36.1371 28.3525 36.1111L28.3137 36.0925L28.3073 36.0896C28.2935 36.0832 28.28 36.0767 28.2662 36.0709C28.2394 36.058 28.2127 36.0446 28.1862 36.0311L28.1783 36.0271L28.14 36.0069C28.0719 35.9715 28.005 35.9336 27.9396 35.8932L27.9037 35.8713C27.8852 35.86 27.8683 35.8486 27.8506 35.8371L27.8039 35.8061C27.7871 35.7948 27.7702 35.7834 27.7537 35.7715L27.7237 35.7503C27.6921 35.7275 27.661 35.7044 27.6304 35.6805C27.6142 35.668 27.5981 35.655 27.5821 35.6432C27.5464 35.6146 27.5117 35.5853 27.4773 35.555L27.4758 35.5538C27.4423 35.5248 27.4096 35.4948 27.3777 35.4642L27.376 35.4621C27.3594 35.4463 27.3431 35.4305 27.3269 35.414C27.3108 35.3975 27.2946 35.3813 27.2789 35.3648C27.2631 35.3482 27.2473 35.3313 27.2319 35.314C27.2169 35.2977 27.2023 35.2813 27.1877 35.2646L27.1827 35.259C27.1075 35.1717 27.0371 35.0803 26.9719 34.985L26.946 34.9469C26.9289 34.9217 26.9121 34.8963 26.8954 34.8709L26.8462 34.7953C26.8221 34.7584 26.7985 34.7211 26.7756 34.6836C26.7592 34.6569 26.7429 34.6302 26.7269 34.6034C26.7133 34.5805 26.6998 34.5578 26.6869 34.5353C26.6796 34.523 26.6727 34.5105 26.6658 34.498C26.6589 34.485 26.6508 34.4719 26.6435 34.4588L26.6319 34.4382C26.6279 34.4313 26.6267 34.4292 26.6246 34.4246C26.6104 34.3998 26.5967 34.3746 26.5833 34.349C26.5773 34.338 26.5712 34.3267 26.5648 34.3157L26.546 34.2798L26.5275 34.2442L26.4917 34.1719C26.4858 34.16 26.4802 34.1482 26.4746 34.1363C26.4623 34.1107 26.4506 34.0855 26.4389 34.0603C26.4344 34.05 26.4296 34.0398 26.4254 34.0296C26.4094 33.9948 26.3942 33.9596 26.3798 33.924C26.37 33.9005 26.361 33.8771 26.3514 33.8538C26.3246 33.785 26.2994 33.7157 26.2762 33.6455C26.2694 33.6246 26.2625 33.604 26.2564 33.5832C26.2414 33.5359 26.2279 33.4882 26.2158 33.44C26.201 33.384 26.1879 33.3273 26.1769 33.2705C26.1698 33.2369 26.1635 33.2032 26.1583 33.1692C26.1527 33.1357 26.1479 33.1021 26.1439 33.0688C26.1354 33.0023 26.1294 32.9357 26.1258 32.8688C26.1258 32.8577 26.1248 32.8465 26.1246 32.8355C26.1235 32.8134 26.1229 32.7913 26.1227 32.7692C26.111 31.8792 26.5617 31.0232 27.5248 30.0605C29.2402 28.3465 30.2389 25.8384 30.2389 25.8384C30.2389 25.8384 30.2658 25.7332 30.3219 25.5819C30.3406 25.5317 30.3602 25.4817 30.3808 25.4323C30.4044 25.3765 30.4296 25.3213 30.4567 25.2671L30.4646 25.2513C30.4994 25.1821 30.5371 25.1148 30.5781 25.0492C30.5875 25.034 30.5967 25.0188 30.6075 25.0038C30.6379 24.9584 30.6702 24.9144 30.7041 24.8717C30.7304 24.839 30.7583 24.8073 30.7877 24.7773C30.8873 24.6748 31.0008 24.5911 31.1294 24.5463L31.1456 24.5411C31.1564 24.5375 31.1671 24.5342 31.1781 24.5311C31.191 24.5278 31.2039 24.5246 31.2169 24.5219L31.2227 24.5209C31.25 24.5155 31.2773 24.5117 31.305 24.5098H31.3075C31.3219 24.5098 31.3362 24.5084 31.351 24.5084C31.3879 24.5086 31.4246 24.5115 31.461 24.5171C31.6156 24.5415 31.7629 24.6336 31.8896 24.7757L31.9067 24.7957C31.9479 24.844 31.9854 24.8957 32.0187 24.9498C32.0437 24.99 32.0673 25.0323 32.0896 25.0767C32.0985 25.0955 32.1071 25.1125 32.1156 25.1309C32.1198 25.1402 32.1239 25.1494 32.1279 25.159C32.1362 25.1775 32.1439 25.1963 32.1517 25.2159C32.1952 25.3275 32.2289 25.4428 32.2527 25.5603C32.2779 25.6871 32.2925 25.8159 32.2967 25.9453C32.2981 26.0021 32.2981 26.0596 32.2967 26.118C32.2956 26.14 32.2946 26.1623 32.2929 26.1846C32.2758 26.4323 32.2219 26.6761 32.1327 26.908C32.1237 26.9309 32.1139 26.9542 32.1048 26.9775C32.06 27.0846 32.0079 27.1884 31.9492 27.2884C31.9156 27.3455 31.8794 27.4021 31.8406 27.4584L31.8169 27.4921C31.725 27.6205 31.6225 27.7409 31.5104 27.8521C31.4 27.9628 31.2817 28.065 31.1564 28.1586C31.0308 28.2513 30.9131 28.3542 30.8044 28.4661C30.4912 28.7948 30.4183 29.0846 30.4887 29.3044C30.4971 29.3292 30.5069 29.3536 30.5181 29.3771C30.5442 29.4282 30.5779 29.475 30.6183 29.5159L30.6294 29.5269C30.6408 29.538 30.6529 29.5486 30.6652 29.5588L30.6777 29.569C30.7081 29.5923 30.7402 29.6132 30.7737 29.6313C30.7833 29.6365 30.7923 29.6417 30.8033 29.6467C30.8494 29.6696 30.8975 29.688 30.9471 29.7019L30.9608 29.7055L30.9794 29.7105L30.9956 29.7144L31.0129 29.7182L31.0302 29.7217L31.0467 29.7244C31.0589 29.7267 31.0714 29.7286 31.0837 29.7303L31.0958 29.7319L31.1173 29.7342L31.1306 29.7355L31.1527 29.7371H31.1654L31.1883 29.7382H31.2606L31.2812 29.7371L31.305 29.7357L31.3339 29.733L31.361 29.7296C31.3671 29.7296 31.3733 29.728 31.3796 29.7269C31.475 29.713 31.5679 29.6861 31.6558 29.6469C31.6746 29.639 31.6931 29.6303 31.7102 29.6211C31.7469 29.6028 31.7825 29.5821 31.8167 29.5594C31.8644 29.5282 31.9094 29.493 31.9517 29.4546L31.981 29.4267C31.9856 29.4221 31.9904 29.4177 31.9948 29.413C32.0235 29.3842 32.0506 29.3538 32.0758 29.3219C32.1204 29.2657 32.16 29.2059 32.1944 29.143C32.6021 28.4017 33.0294 27.6713 33.4758 26.9528L33.5371 26.8546L33.5989 26.7563C33.63 26.7067 33.661 26.6575 33.6921 26.609L33.7235 26.56L33.7862 26.4623C33.8704 26.3321 33.9548 26.2034 34.0398 26.0759L34.1033 25.9809C34.2308 25.7921 34.3581 25.6084 34.4839 25.4336L34.5469 25.3473C34.6837 25.1582 34.8264 24.9734 34.9746 24.793L35.0335 24.7225C35.0431 24.7107 35.0521 24.6992 35.0627 24.6877L35.1204 24.6209C35.13 24.6098 35.1392 24.599 35.1492 24.5884L35.205 24.5253L35.2331 24.4948C35.2602 24.4655 35.2877 24.4365 35.3156 24.4078C35.3344 24.3892 35.3517 24.3705 35.3698 24.3532C35.4754 24.245 35.5919 24.1482 35.7175 24.0642L35.7464 24.0457L35.7758 24.0269C35.7946 24.0153 35.8135 24.004 35.8329 23.9934C36.3254 23.714 36.7333 23.6934 36.9679 23.928C37.1102 24.0702 37.1887 24.3059 37.1846 24.6336C37.1846 24.6482 37.1846 24.6625 37.1833 24.6775V24.6938C37.1833 24.7086 37.1821 24.7238 37.181 24.739C37.181 24.7575 37.1787 24.7763 37.1769 24.7948C37.175 24.8136 37.1742 24.8278 37.1723 24.8442C37.1723 24.849 37.1712 24.8538 37.1706 24.8586C37.1692 24.8732 37.1673 24.888 37.1654 24.9025C37.1654 24.9071 37.1654 24.9115 37.1635 24.9161C37.1614 24.9359 37.1585 24.9557 37.155 24.9753C37.1527 24.9934 37.1498 25.0115 37.1462 25.0296C37.1448 25.04 37.1427 25.0503 37.141 25.0607C37.1356 25.0903 37.1285 25.1196 37.12 25.1484C37.1039 25.2021 37.0844 25.2548 37.0612 25.3061C37.0512 25.3284 37.0406 25.3507 37.0298 25.3725C37.0073 25.4178 36.9819 25.464 36.9539 25.5119C36.94 25.5355 36.9256 25.5598 36.9102 25.5842L36.8869 25.6213C36.8631 25.6586 36.8383 25.6963 36.8125 25.7344C36.7867 25.7725 36.7589 25.8115 36.7292 25.8509C36.6906 25.9034 36.65 25.9569 36.6071 26.0111L36.5746 26.0521C36.4827 26.1665 36.3885 26.279 36.2923 26.3896L36.2158 26.4761L36.1769 26.5198C36.1237 26.5792 36.0704 26.6382 36.0167 26.6967L35.9754 26.7413C35.9481 26.7709 35.9196 26.8009 35.8923 26.8307C35.8644 26.8609 35.836 26.8909 35.8077 26.9209L35.7219 27.0113L35.635 27.1019C35.606 27.1321 35.5769 27.1628 35.5475 27.193L35.3706 27.3753C34.5258 28.2417 33.6356 29.1053 33.3344 29.6436C33.3144 29.6788 33.2962 29.7148 33.2798 29.7517C33.2371 29.8496 33.2192 29.9334 33.2312 30.0011C33.2352 30.0234 33.2431 30.0448 33.2546 30.0642C33.2717 30.0936 33.2923 30.1207 33.316 30.1448C33.3271 30.1557 33.3385 30.1659 33.351 30.175C33.4129 30.2192 33.4879 30.2419 33.5639 30.2396H33.5877L33.6121 30.238L33.6367 30.235L33.6569 30.2321C33.6596 30.2319 33.6623 30.2313 33.665 30.2307L33.6835 30.2271L33.6885 30.2259L33.7089 30.2215L33.7162 30.2196L33.7381 30.214L33.7642 30.2063C33.7812 30.2011 33.7983 30.1952 33.8158 30.1888C33.8535 30.1755 33.8904 30.16 33.9264 30.1428C33.9356 30.1384 33.945 30.1342 33.9539 30.1294L33.9817 30.1157C34.0179 30.0973 34.0539 30.0775 34.0902 30.0561C34.1192 30.039 34.1479 30.0215 34.1766 30.003L34.2046 29.9844C34.2137 29.9786 34.2231 29.9725 34.2323 29.9657L34.26 29.9471L34.2746 29.9369L34.3146 29.909C34.3519 29.8832 34.3867 29.8567 34.4221 29.8298L34.4252 29.8275L34.481 29.7842C34.5575 29.7238 34.6302 29.663 34.6958 29.6057L34.7396 29.5671L34.7437 29.5634L34.7664 29.5432C34.8202 29.495 34.8681 29.45 34.9081 29.4128L34.9244 29.3969L34.9637 29.3596L34.9873 29.3367L34.9954 29.3284L34.9977 29.3261C35.0177 29.3061 35.0177 29.3061 35.0377 29.2859L35.0394 29.2842L35.0469 29.2775C35.0492 29.275 35.0523 29.2725 35.0558 29.2694L35.0587 29.2667L35.0667 29.2596L35.1089 29.2223L35.1327 29.2009C35.1444 29.1909 35.1571 29.1794 35.17 29.1671L35.1985 29.1421C35.2035 29.138 35.2085 29.1332 35.2137 29.1286L35.2435 29.1025L35.2875 29.0642L35.3106 29.044C35.4012 28.965 35.5117 28.8698 35.6381 28.7625L35.69 28.7188L35.7758 28.6469L35.8633 28.5736C35.9779 28.4786 36.1012 28.3775 36.2317 28.2725L36.3173 28.2038C36.3902 28.1459 36.4652 28.0865 36.541 28.0269C36.5714 28.003 36.6025 27.979 36.6342 27.9553C36.7119 27.8953 36.79 27.8355 36.8683 27.7765C37.0471 27.6415 37.2314 27.5063 37.4179 27.3744L37.4981 27.3188C37.5539 27.28 37.6098 27.2415 37.6658 27.2038L37.7164 27.1694C37.8167 27.1019 37.9177 27.0359 38.0196 26.9713L38.0702 26.9394L38.1204 26.9082C38.1706 26.8771 38.2208 26.8463 38.2704 26.8165L38.3202 26.7869L38.42 26.7288C38.4527 26.7098 38.4852 26.6913 38.5177 26.673L38.5373 26.6619L38.6148 26.6196C38.6469 26.6021 38.6792 26.5853 38.711 26.5688L38.7589 26.5442L38.8052 26.5207C38.911 26.4675 39.0187 26.4184 39.1283 26.3734C39.1433 26.3671 39.1581 26.3611 39.1729 26.3546C39.2023 26.3423 39.2314 26.3311 39.2604 26.3211C39.2894 26.3113 39.3179 26.3011 39.346 26.2911C39.3717 26.2825 39.3964 26.2746 39.4206 26.2671L39.4287 26.2646C39.4417 26.2607 39.4546 26.2569 39.4675 26.2536L39.4712 26.2525C39.4975 26.245 39.5237 26.2382 39.5502 26.2319H39.5523C39.5912 26.2225 39.6292 26.2146 39.6662 26.2084C39.6789 26.2063 39.6914 26.2042 39.7035 26.2025C39.7396 26.1971 39.7758 26.1934 39.8121 26.1909C39.835 26.1892 39.8581 26.1886 39.881 26.1886H39.8985C39.9219 26.1886 39.9444 26.19 39.9667 26.1923C39.9769 26.1923 39.9871 26.1942 39.9971 26.1957H40.0012C40.0112 26.1967 40.0214 26.1984 40.0312 26.2005C40.041 26.2025 40.051 26.204 40.0606 26.2063H40.0639C40.0735 26.2084 40.0825 26.2111 40.0925 26.2138C40.1721 26.2352 40.2452 26.2757 40.3058 26.3315L40.3112 26.3369L40.3219 26.3473L40.3323 26.3584C40.4158 26.4463 40.485 26.5469 40.5371 26.6565L40.5452 26.675C40.5629 26.7167 40.5769 26.7598 40.5867 26.804C40.6137 26.9271 40.6064 27.0555 40.5654 27.1746C40.5477 27.2265 40.526 27.2769 40.5004 27.3253L40.4833 27.3561C40.4183 27.465 40.3417 27.5665 40.2544 27.6586L40.2356 27.6784C40.1946 27.7219 40.1519 27.7642 40.1079 27.8048C40.0939 27.818 40.0796 27.8311 40.065 27.8442L40.0429 27.8642C39.9971 27.9048 39.9502 27.9444 39.9027 27.9832C39.8944 27.9898 39.8858 27.9965 39.8777 28.0036C39.8446 28.0302 39.8104 28.0573 39.775 28.0844C39.6529 28.1778 39.5285 28.2677 39.4019 28.3546C39.3273 28.4057 39.2502 28.4571 39.1706 28.5094C39.0223 28.6067 38.8729 28.7019 38.7221 28.7953C38.6785 28.8221 38.6348 28.8494 38.5902 28.8765C38.1804 29.1286 37.726 29.3982 37.2414 29.6913L37.116 29.7675C36.9787 29.8513 36.8492 29.9313 36.7273 30.0073L36.6658 30.0461L36.5496 30.1207C36.5035 30.1498 36.4587 30.1786 36.4152 30.2069C36.3823 30.228 36.3502 30.2488 36.3187 30.2694L36.2567 30.3103C36.2264 30.33 36.1964 30.3498 36.1664 30.37L36.1373 30.3886C36.1064 30.4092 36.0764 30.4294 36.0473 30.4494L35.9996 30.4819L35.9435 30.5209L35.8919 30.5569C35.8102 30.6142 35.7296 30.6728 35.6496 30.7323L35.6217 30.7536C35.5902 30.7773 35.5598 30.8011 35.5304 30.8242L35.4921 30.8548C35.4275 30.9067 35.3689 30.9565 35.316 31.004L35.2902 31.0278C35.2754 31.0413 35.2608 31.0548 35.2471 31.0682C35.2373 31.0773 35.2283 31.0867 35.2185 31.0959L35.205 31.1092C35.1752 31.139 35.1462 31.1696 35.1181 31.2011L35.1044 31.2169C35.0737 31.2523 35.0471 31.2863 35.0235 31.3194L35.0131 31.3344C34.986 31.374 34.9621 31.4159 34.9417 31.4594L34.9346 31.4746L34.9302 31.4853L34.9267 31.4944L34.9219 31.5071C34.9204 31.5115 34.9175 31.5192 34.9158 31.5259C34.9073 31.5507 34.901 31.5763 34.8969 31.6023L34.8948 31.6163L34.8931 31.629L34.8921 31.6413V31.7067C34.8921 31.7121 34.8921 31.7178 34.8933 31.7234C34.8935 31.7267 34.8939 31.73 34.8944 31.7334C34.8944 31.7388 34.8958 31.7442 34.8964 31.7498L34.9004 31.7728V31.7738C34.9019 31.7811 34.9033 31.7884 34.9052 31.7957C34.9071 31.803 34.9089 31.8111 34.9112 31.8188C34.9179 31.8423 34.926 31.8657 34.9354 31.8884C34.9354 31.89 34.9369 31.8919 34.9375 31.8936C34.94 31.8992 34.9423 31.905 34.945 31.9107C34.9552 31.9344 34.9667 31.9575 34.9792 31.9802L34.9923 32.0038L35.006 32.0275L35.0204 32.0513C35.0229 32.0553 35.0256 32.0588 35.0287 32.0623L35.0335 32.0673L35.0385 32.0719L35.0442 32.0763C35.0479 32.079 35.0519 32.0813 35.056 32.0836C35.0602 32.0855 35.0648 32.0875 35.0694 32.0892C35.0744 32.0909 35.0794 32.0923 35.0844 32.0936C35.2046 32.1207 35.4517 32.0211 35.7798 31.8477L35.8387 31.8165L35.9385 31.7621L35.9875 31.735C36.0221 31.7163 36.0577 31.6955 36.0937 31.6748L36.1598 31.6375C36.5937 31.3878 37.1123 31.0667 37.6481 30.7534C37.6981 30.724 37.7485 30.6948 37.7989 30.6657L37.9002 30.6011C37.9508 30.5719 38.0012 30.5432 38.0519 30.5148C38.2673 30.3923 38.4856 30.2746 38.7062 30.1619L38.8052 30.1117C38.871 30.0792 38.9362 30.0475 39.0006 30.0167C39.1254 29.9575 39.2514 29.9015 39.3787 29.8484L39.4485 29.82L39.4571 29.8167C39.8267 29.6703 40.1619 29.5796 40.4331 29.5796C40.4919 29.5792 40.5504 29.584 40.6083 29.594H40.61C40.6287 29.5973 40.6456 29.6011 40.6627 29.6055H40.6658C40.6908 29.6115 40.7154 29.6192 40.7392 29.6288C40.7581 29.6357 40.7764 29.6438 40.7942 29.6534C40.8719 29.6928 40.9383 29.7509 40.9879 29.8225C40.9921 29.8286 40.996 29.8348 40.9998 29.8413C41.0181 29.8692 41.0339 29.8986 41.0469 29.9294C41.0546 29.9471 41.0617 29.9655 41.0683 29.9853C41.075 30.0053 41.0808 30.0244 41.0869 30.045C41.131 30.203 41.1267 30.37 41.0744 30.5255Z" fill="#FF9D00"/>
<path fill-rule="evenodd" clip-rule="evenodd" d="M38.6166 19.2101V19.108C38.6166 10.3884 31.5503 3.31989 22.8301 3.31989C14.1103 3.31989 7.04136 10.3888 7.04136 19.108L7.04115 19.1422C7.04094 19.1649 7.04073 19.1874 7.04115 19.2101C7.04215 19.2441 7.0425 19.278 7.04219 19.312L7.04344 19.387L7.04386 19.4141L7.0449 19.4511C7.04532 19.4711 7.04594 19.4909 7.04594 19.5109L7.04803 19.592L7.05136 19.6872L7.0524 19.7184L7.05657 19.817V19.8216L7.0624 19.9368V19.9397C7.06448 19.9791 7.06657 20.0184 7.06907 20.0576C7.07115 20.0941 7.07344 20.1303 7.07594 20.1666L7.07657 20.173C7.0784 20.2041 7.08048 20.2353 7.08282 20.2663L7.08344 20.2745C7.08553 20.3045 7.08782 20.3347 7.09032 20.3645L7.09073 20.3703L7.0949 20.4224C7.10738 20.5726 7.12196 20.7228 7.13865 20.8726L7.13969 20.882L7.15219 20.992L7.16657 21.1078C7.17621 21.1849 7.18651 21.2618 7.1974 21.3386C7.2039 21.3851 7.21065 21.4313 7.21761 21.4776L7.21865 21.4832C7.23421 21.5878 7.25101 21.6924 7.26907 21.7966C7.32088 22.0988 7.38173 22.3997 7.45157 22.6984L7.45261 22.7032L7.45928 22.7313C7.46553 22.758 7.47178 22.7847 7.47844 22.8116L7.4899 22.7976C7.94823 22.2497 8.60573 21.9476 9.34136 21.9476C9.93094 21.9476 10.5359 22.1424 11.142 22.5268C11.5441 22.7822 11.9887 23.2347 12.4462 23.8036C12.8695 23.2155 13.4628 22.8249 14.1415 22.7182C14.2711 22.6978 14.402 22.6874 14.5328 22.6872C16.0822 22.6872 17.0153 24.0318 17.3678 25.2409C17.5418 25.6497 18.3813 27.5103 19.6472 28.769C21.5711 30.6913 22.0526 32.6751 21.1005 34.799H21.1036C21.1686 34.8061 21.2338 34.8128 21.2993 34.8188C21.3382 34.8226 21.3772 34.8263 21.4161 34.8297L21.4299 34.8309C21.4584 34.8336 21.4872 34.8361 21.5159 34.8382L21.5951 34.8447C21.6705 34.8505 21.7461 34.8557 21.8222 34.8607L21.8822 34.8643L21.9299 34.867L21.9597 34.8686L22.0526 34.8736L22.078 34.8747L22.1759 34.8788L22.2845 34.883L22.372 34.8855L22.3865 34.8861C22.4049 34.8868 22.4236 34.8876 22.4422 34.8876L22.462 34.888C22.5849 34.8909 22.7076 34.8924 22.8305 34.8924H22.9609L23.0543 34.8913C23.0772 34.8901 23.0999 34.8901 23.1228 34.8901H23.159L23.1905 34.8895C23.2028 34.8891 23.2153 34.8886 23.2276 34.8886H23.2649L23.338 34.8866L23.448 34.8828L23.5693 34.8776C23.604 34.8761 23.6386 34.8745 23.6734 34.8726L23.7107 34.8705L23.7659 34.8674L23.7986 34.8655L23.823 34.8641L23.9349 34.8565C23.9722 34.8543 24.0095 34.8513 24.0468 34.8484L24.148 34.8405L24.2195 34.8345L24.2976 34.8274C24.3778 34.8199 24.4578 34.812 24.5374 34.8036C24.5882 34.798 24.6386 34.7924 24.6893 34.7863L24.7782 34.7757C23.8409 32.6605 24.3261 30.6857 26.2424 28.7709C27.5053 27.509 28.3449 25.648 28.5199 25.2395C28.8726 24.0301 29.8049 22.6857 31.3547 22.6857C31.4857 22.6859 31.6165 22.6961 31.7459 22.7168C32.424 22.8234 33.0176 23.2143 33.4415 23.8022C33.8993 23.2332 34.3436 22.7807 34.7457 22.5253C35.3518 22.1409 35.9572 21.9461 36.5461 21.9461C37.1953 21.9461 37.7838 22.1816 38.2282 22.6132C38.2526 22.5045 38.2761 22.3957 38.2986 22.2866C38.3124 22.2184 38.3259 22.1501 38.3393 22.0816C38.3555 21.9974 38.3709 21.9128 38.3851 21.8282C38.3888 21.8053 38.3928 21.7824 38.3972 21.7593C38.404 21.7232 38.4101 21.6876 38.4157 21.6513L38.418 21.6376L38.4328 21.5432L38.4474 21.4476L38.4476 21.4466C38.4534 21.4066 38.4595 21.3663 38.4649 21.3261C38.4693 21.2957 38.4734 21.2653 38.4774 21.2347L38.4799 21.2172L38.4928 21.1176L38.5034 21.0328C38.5099 20.977 38.5161 20.9211 38.5222 20.8651C38.5249 20.8428 38.5272 20.8203 38.5295 20.7978L38.5315 20.7797C38.5355 20.7424 38.5391 20.7053 38.5424 20.668L38.5507 20.5813C38.568 20.3893 38.582 20.1972 38.5928 20.0047V20.0034L38.5984 19.9013L38.5995 19.8784L38.6036 19.7816C38.6053 19.7451 38.6068 19.7082 38.608 19.6709V19.6682L38.609 19.6413C38.6101 19.6184 38.6109 19.5955 38.6109 19.5728L38.6113 19.5634C38.6122 19.5422 38.613 19.5201 38.613 19.4982L38.6136 19.4795C38.6143 19.4576 38.6149 19.4359 38.6149 19.4141L38.6153 19.3955C38.6159 19.3676 38.6166 19.3399 38.6166 19.312V19.2101ZM18.9143 34.9824C20.1645 33.1486 20.0759 31.7724 18.3603 30.0578C16.6447 28.3432 15.6461 25.8357 15.6461 25.8357C15.6461 25.8357 15.2734 24.3791 14.4234 24.513C13.5734 24.6468 12.9499 26.8232 14.7295 28.1555C16.509 29.4878 14.3755 30.3911 13.6905 29.1409C13.0053 27.8905 11.1353 24.6766 10.1655 24.0618C9.19594 23.447 8.51407 23.7916 8.74261 25.0586C8.85615 25.6876 9.91198 26.7609 10.8984 27.7638C11.8993 28.7816 12.8287 29.7263 12.6301 30.0607C12.2357 30.7249 10.8468 29.2805 10.8468 29.2805C10.8468 29.2805 6.49761 25.3228 5.55073 26.3543C4.67803 27.3049 6.02386 28.113 8.09803 29.3584C8.27448 29.4645 8.45615 29.5736 8.64219 29.6861C11.0151 31.1228 11.1997 31.5018 10.863 32.0453C10.7387 32.2461 9.94428 31.7693 8.96719 31.1826C7.30157 30.1826 5.10511 28.864 4.79511 30.0443C4.52657 31.0657 6.1424 31.6916 7.60782 32.2593C8.82865 32.7322 9.94532 33.1647 9.78115 33.7518C9.61094 34.3603 8.68824 33.8528 7.67949 33.2978C6.54719 32.6747 5.30657 31.992 4.90073 32.7624C4.13323 34.2186 10.1945 35.933 10.2443 35.9455C12.2026 36.4534 17.1759 37.5297 18.9143 34.9824ZM26.9693 34.9824C25.7188 33.1486 25.8076 31.7724 27.5232 30.0578C29.2388 28.3432 30.2376 25.8357 30.2376 25.8357C30.2376 25.8357 30.6101 24.3791 31.4601 24.513C32.3101 24.6468 32.9338 26.8232 31.154 28.1555C29.3743 29.4878 31.508 30.3911 32.1932 29.1409C32.8782 27.8905 34.7474 24.6766 35.717 24.0618C36.6866 23.447 37.3686 23.7916 37.1401 25.0586C37.0265 25.6876 35.9707 26.7611 34.984 27.7641C33.9834 28.7816 33.054 29.7263 33.2526 30.0607C33.6468 30.7249 35.037 29.2797 35.037 29.2797C35.037 29.2797 39.3859 25.322 40.3328 26.3534C41.2055 27.3041 39.8595 28.1124 37.7853 29.358C37.6088 29.4638 37.4274 29.5728 37.2413 29.6855C34.8682 31.122 34.6838 31.5011 35.0205 32.0445C35.1449 32.2453 35.9393 31.7684 36.9161 31.182C38.582 30.182 40.7784 28.8632 41.0884 30.0434C41.357 31.0649 39.7411 31.6909 38.2755 32.2586C37.0547 32.7315 35.9382 33.1638 36.1022 33.7511C36.2724 34.3597 37.1947 33.852 38.203 33.297C39.3353 32.6738 40.5761 31.9909 40.9822 32.7615C41.7497 34.2188 35.6876 35.9313 35.6384 35.944C33.6801 36.4534 28.7068 37.5297 26.9693 34.9824Z" fill="#FFD21E"/>
<path fill-rule="evenodd" clip-rule="evenodd" d="M27.9578 14.8105C28.2038 14.8976 28.3869 15.1628 28.5611 15.4148C28.7965 15.7559 29.0157 16.073 29.3519 15.8942C29.7488 15.6834 30.074 15.3596 30.2867 14.9638C30.4994 14.5681 30.5899 14.1181 30.5467 13.6709C30.5146 13.3365 30.4088 13.0133 30.2367 12.7248C30.0646 12.4362 29.8307 12.1895 29.5519 12.0022C29.273 11.8149 28.9559 11.6919 28.6238 11.6419C28.2915 11.5919 27.9524 11.6163 27.6307 11.7132C27.2005 11.8427 26.8184 12.0969 26.5326 12.4435C26.2469 12.7902 26.0703 13.2137 26.0251 13.6607C25.9801 14.1077 26.0686 14.5581 26.2794 14.9548C26.4353 15.248 26.7811 15.1098 27.1461 14.9638C27.4324 14.8494 27.7303 14.7303 27.9578 14.8105ZM17.2544 14.8107C17.0084 14.8978 16.8251 15.163 16.6509 15.4151C16.4155 15.7559 16.1963 16.0732 15.8601 15.8944C15.5636 15.7367 15.3059 15.5151 15.1053 15.2457C14.9047 14.9763 14.7663 14.6659 14.7001 14.3366C14.6338 14.0073 14.6413 13.6675 14.7222 13.3415C14.8032 13.0155 14.9553 12.7115 15.1676 12.4513C15.3803 12.1913 15.6478 11.9816 15.9511 11.8374C16.2544 11.6932 16.5861 11.618 16.9219 11.6172C17.2578 11.6165 17.5897 11.6902 17.8936 11.8331C18.1976 11.976 18.4661 12.1845 18.6799 12.4436C18.9657 12.7902 19.1424 13.2139 19.1876 13.6609C19.2326 14.108 19.144 14.5584 18.933 14.9551C18.7767 15.2482 18.4309 15.1098 18.0659 14.9638C17.7799 14.8494 17.4819 14.7303 17.2544 14.8107ZM26.3019 24.5505C27.9984 23.2138 28.6215 21.0319 28.6215 19.6878C28.6215 18.6253 27.9065 18.9596 26.7622 19.5261L26.6978 19.5582C25.6471 20.0784 24.2488 20.7709 22.7138 20.7709C21.1786 20.7709 19.7803 20.0782 18.7301 19.558C17.5486 18.9728 16.8076 18.6057 16.8076 19.688C16.8076 21.0744 17.4705 23.3513 19.2903 24.6742C19.5303 24.1867 19.8682 23.754 20.2832 23.4032C20.698 23.0523 21.1809 22.7911 21.7015 22.6355C21.8832 22.5813 22.0703 22.894 22.2619 23.214C22.4467 23.523 22.6355 23.8388 22.8278 23.8388C23.0324 23.8388 23.2336 23.5276 23.4301 23.2236C23.6353 22.9061 23.8353 22.5965 24.0288 22.6584C25.003 22.9711 25.8178 23.6492 26.3019 24.5505Z" fill="#32343D"/>
<path d="M26.3013 24.5503C25.4178 25.2466 24.2434 25.7134 22.7142 25.7134C21.2774 25.7134 20.1534 25.3013 19.2903 24.6741C19.5305 24.1868 19.8686 23.7541 20.2834 23.4034C20.6982 23.0526 21.1811 22.7911 21.7015 22.6353C22.0584 22.5288 22.4363 23.8386 22.8276 23.8386C23.2465 23.8386 23.6501 22.5372 24.0288 22.6582C25.0026 22.9711 25.8172 23.6493 26.3013 24.5503Z" fill="#FF323D"/>
<path fill-rule="evenodd" clip-rule="evenodd" d="M13.1981 16.7009C13.0369 16.8095 12.8558 16.8851 12.6654 16.9234C12.4749 16.9617 12.2787 16.9622 12.088 16.9247C11.8974 16.887 11.716 16.8122 11.5544 16.7045C11.3927 16.5965 11.2539 16.458 11.1459 16.2963C11.0379 16.1349 10.9629 15.9534 10.9251 15.763C10.8874 15.5724 10.8876 15.3761 10.9258 15.1855C10.964 14.9951 11.0394 14.814 11.1477 14.6526C11.256 14.4913 11.3951 14.3529 11.557 14.2455C11.8827 14.0294 12.2807 13.9511 12.6639 14.028C13.0471 14.1048 13.3842 14.3303 13.6014 14.6553C13.8185 14.9803 13.8981 15.378 13.8224 15.7613C13.7468 16.1449 13.5222 16.4828 13.1981 16.7009ZM34.3256 16.7009C34.1643 16.8095 33.9833 16.8851 33.7929 16.9234C33.6024 16.9617 33.4062 16.9622 33.2156 16.9247C33.0249 16.887 32.8435 16.8122 32.6818 16.7045C32.5201 16.5965 32.3814 16.458 32.2735 16.2963C32.1654 16.1349 32.0904 15.9534 32.0526 15.763C32.0149 15.5724 32.0151 15.3761 32.0533 15.1855C32.0914 14.9951 32.1668 14.814 32.2751 14.6526C32.3835 14.4913 32.5226 14.3529 32.6845 14.2455C33.0101 14.0294 33.4083 13.9511 33.7914 14.028C34.1745 14.1048 34.5116 14.3303 34.7289 14.6553C34.946 14.9803 35.0256 15.378 34.9499 15.7613C34.8743 16.1449 34.6497 16.4828 34.3256 16.7009Z" fill="#FFAD03"/>
</svg>
