<svg width="199" height="40" viewBox="0 0 199 40" fill="none" xmlns="http://www.w3.org/2000/svg">
<path d="M131.919 0.0166626H166.478V6.39537H152.769V39.9529H145.914V6.39537H131.919V0.0166626Z" fill="white"/>
<path d="M75.0828 0.0166626V6.39537H47.3813V16.6567H69.6588V23.0354H47.3813V33.5742H75.0828V39.9529H40.5267V6.39537H40.5238V0.0166626H75.0828Z" fill="white"/>
<path d="M92.3392 0.0332642H83.3685L115.499 39.9695H124.496L108.429 20.0151L124.471 0.063733L115.499 0.0775963L103.937 14.4372L92.3392 0.0332642Z" fill="white"/>
<path d="M101.544 28.56L97.0521 22.9744L83.3428 40H92.3391L101.544 28.56Z" fill="white"/>
<path fill-rule="evenodd" clip-rule="evenodd" d="M40.7669 39.9529L8.59274 0H0.0244141V39.9362H6.87908V8.53634L32.1557 39.9529H40.7669Z" fill="white"/>
<path d="M168.019 39.7089C167.517 39.7089 167.09 39.535 166.733 39.1872C166.375 38.8394 166.198 38.4183 166.203 37.9195C166.198 37.4343 166.375 37.0178 166.733 36.67C167.09 36.3222 167.517 36.1483 168.019 36.1483C168.502 36.1483 168.925 36.3222 169.282 36.67C169.645 37.0178 169.826 37.4343 169.831 37.9195C169.826 38.249 169.742 38.551 169.575 38.821C169.403 39.0957 169.185 39.3108 168.911 39.4664C168.641 39.6266 168.344 39.7089 168.019 39.7089Z" fill="white"/>
<path d="M179.719 22.8849H182.756V34.5876C182.752 35.6631 182.519 36.5831 182.065 37.3565C181.605 38.13 180.968 38.7203 180.151 39.1368C179.338 39.5487 178.386 39.7593 177.304 39.7593C176.314 39.7593 175.427 39.5808 174.638 39.233C173.848 38.8851 173.221 38.3634 172.762 37.6769C172.297 36.9903 172.069 36.1345 172.069 35.1094H175.112C175.116 35.5579 175.219 35.9468 175.413 36.2718C175.608 36.5968 175.878 36.8439 176.222 37.0178C176.57 37.1917 176.969 37.2787 177.42 37.2787C177.908 37.2787 178.326 37.178 178.664 36.972C179.003 36.7706 179.264 36.4686 179.445 36.0658C179.621 35.6677 179.714 35.1734 179.719 34.5876V22.8849Z" fill="white"/>
<path d="M195.255 27.4617C195.181 26.7523 194.855 26.1985 194.289 25.8049C193.717 25.4067 192.979 25.2099 192.073 25.2099C191.437 25.2099 190.889 25.3061 190.434 25.4937C189.979 25.6859 189.626 25.9422 189.384 26.2671C189.143 26.5921 189.022 26.9628 189.012 27.3793C189.012 27.7271 189.096 28.0292 189.259 28.2809C189.421 28.5372 189.639 28.7523 189.923 28.9262C190.201 29.1047 190.512 29.2511 190.852 29.3701C191.195 29.4891 191.539 29.5899 191.883 29.6722L193.466 30.0612C194.103 30.2077 194.721 30.4045 195.31 30.6562C195.9 30.9034 196.434 31.2192 196.903 31.599C197.373 31.9789 197.744 32.4365 198.018 32.972C198.292 33.5075 198.432 34.1345 198.432 34.8576C198.432 35.8324 198.181 36.6883 197.674 37.4297C197.168 38.1665 196.439 38.7432 195.482 39.1597C194.53 39.5716 193.378 39.7821 192.022 39.7821C190.712 39.7821 189.57 39.5808 188.608 39.1781C187.643 38.7799 186.89 38.194 186.346 37.4251C185.803 36.6563 185.51 35.718 185.469 34.615H188.479C188.52 35.1917 188.706 35.6723 189.022 36.0613C189.342 36.4457 189.76 36.7295 190.271 36.9217C190.787 37.1093 191.363 37.2055 191.999 37.2055C192.663 37.2055 193.248 37.1047 193.754 36.908C194.256 36.7112 194.651 36.4366 194.934 36.0796C195.222 35.7272 195.366 35.3107 195.371 34.8348C195.366 34.4 195.236 34.0384 194.985 33.7546C194.73 33.4709 194.377 33.2329 193.926 33.0407C193.471 32.8485 192.942 32.6745 192.338 32.5235L190.415 32.0384C189.026 31.686 187.926 31.1505 187.122 30.432C186.314 29.7134 185.914 28.7615 185.914 27.567C185.914 26.5876 186.184 25.7272 186.728 24.9903C187.266 24.2535 188.005 23.6813 188.938 23.274C189.876 22.8621 190.935 22.6607 192.115 22.6607C193.313 22.6607 194.363 22.8621 195.269 23.274C196.174 23.6813 196.885 24.2489 197.4 24.9719C197.916 25.6951 198.185 26.5235 198.199 27.4617H195.255Z" fill="white"/>
</svg>
