<svg width="326" height="40" viewBox="0 0 326 40" fill="none" xmlns="http://www.w3.org/2000/svg">
<g clip-path="url(#clip0_50_16)">
<path d="M100.961 16.8558H95.1057V28.1159C95.1057 31.1183 97.0914 31.0697 100.961 30.8833V35.4336C93.1241 36.3736 90.0055 34.214 90.0055 28.1159V16.8558H85.6605V11.9733H90.0055V5.67263L95.1057 4.17344V11.9733H100.961V16.8558ZM123.287 11.9733H128.387V35.4336H123.287V32.0543C121.492 34.5422 118.703 36.0454 115.019 36.0454C108.6 36.0454 103.264 30.6483 103.264 23.7034C103.264 16.714 108.6 11.3655 115.019 11.3655C118.703 11.3655 121.492 12.8647 123.287 15.3039V11.9733ZM115.824 31.2115C120.075 31.2115 123.287 28.0673 123.287 23.7034C123.287 19.3396 120.075 16.1953 115.824 16.1953C111.572 16.1953 108.364 19.3396 108.364 23.7034C108.364 28.0673 111.572 31.2115 115.824 31.2115ZM136.886 8.45626C135.092 8.45626 133.626 6.95302 133.626 5.21882C133.63 4.79338 133.715 4.37198 133.877 3.97895C134.042 3.58597 134.282 3.22911 134.584 2.92877C134.886 2.62842 135.245 2.39048 135.64 2.22855C136.034 2.06647 136.46 1.98138 136.886 1.98138C137.313 1.98138 137.735 2.06647 138.133 2.22855C138.527 2.39062 138.884 2.62968 139.189 2.92952C139.489 3.23341 139.729 3.58997 139.895 3.97895C140.058 4.37198 140.143 4.79338 140.143 5.21882C140.143 6.95302 138.681 8.45626 136.886 8.45626ZM134.336 35.4336V11.9733H139.437V35.4336H134.336ZM145.341 35.4336V1.18317H150.441V35.4336H145.341ZM183.544 11.9733H188.929L181.514 35.4336H176.507L171.597 19.6232L166.639 35.4336H161.632L154.218 11.9733H159.602L164.183 28.1605L169.141 11.9733H174.005L178.915 28.1605L183.544 11.9733ZM195.255 8.45626C193.46 8.45626 191.998 6.95302 191.998 5.21882C191.998 4.79338 192.084 4.37198 192.246 3.97895C192.413 3.58997 192.652 3.23341 192.953 2.92952C193.257 2.62968 193.615 2.39062 194.009 2.22855C194.406 2.06647 194.829 1.98138 195.255 1.98138C196.118 1.98159 196.946 2.32244 197.558 2.92952C197.862 3.23341 198.102 3.58997 198.264 3.97895C198.431 4.37198 198.516 4.79338 198.516 5.21882C198.516 6.95302 197.05 8.45626 195.255 8.45626ZM192.705 35.4336V11.9733H197.805V35.4336H192.705ZM225.199 21.0292V35.4336H220.099V21.5478C220.099 17.9781 218.02 16.1021 214.808 16.1021C211.453 16.1021 208.81 18.0754 208.81 22.8606V35.4336H203.71V11.9733H208.81V14.9757C210.369 12.5365 212.919 11.3655 216.131 11.3655C221.418 11.3655 225.199 14.9311 225.199 21.0292ZM249.376 2.58916H254.477V35.4336H249.376V32.0543C247.582 34.5422 244.796 36.0454 241.113 36.0454C234.689 36.0454 229.353 30.6483 229.353 23.7034C229.353 16.714 234.689 11.3655 241.113 11.3655C244.796 11.3655 247.582 12.8647 249.376 15.3039V2.58916ZM241.917 31.2115C246.164 31.2115 249.376 28.0673 249.376 23.7034C249.376 19.3396 246.164 16.1953 241.917 16.1953C237.665 16.1953 234.453 19.3396 234.453 23.7034C234.453 28.0673 237.665 31.2115 241.917 31.2115ZM259.106 23.7034C259.106 16.714 264.442 11.3655 271.572 11.3655C276.201 11.3655 280.213 13.7561 282.102 17.419L277.712 19.9514C276.673 17.7472 274.358 16.3371 271.524 16.3371C267.369 16.3371 264.206 19.4814 264.206 23.7034C264.206 27.9255 267.369 31.0697 271.524 31.0697C274.358 31.0697 276.673 29.6151 277.805 27.4595L282.199 29.9433C280.213 33.6508 276.201 36.0454 271.572 36.0454C264.442 36.0454 259.106 30.6483 259.106 23.7034ZM303.307 28.8169C303.307 33.5089 299.197 36.0454 294.097 36.0454C289.374 36.0454 285.976 33.9303 284.465 30.5551L288.855 28.0187C289.614 30.1337 291.502 31.3979 294.097 31.3979C296.367 31.3979 298.113 30.6483 298.113 28.7723C298.113 24.5948 285.411 26.9409 285.411 18.5414C285.411 14.1329 289.236 11.3655 294.052 11.3655C297.922 11.3655 301.134 13.1483 302.787 16.2439L298.491 18.6386C297.642 16.8072 295.989 15.9644 294.052 15.9644C292.209 15.9644 290.605 16.7585 290.605 18.4482C290.605 22.7188 303.307 20.1378 303.307 28.8169ZM325.08 28.8169C325.08 33.5089 320.971 36.0454 315.871 36.0454C311.148 36.0454 307.745 33.9303 306.235 30.5551L310.628 28.0187C311.384 30.1337 313.272 31.3979 315.871 31.3979C318.137 31.3979 319.883 30.6483 319.883 28.7723C319.883 24.5948 307.181 26.9409 307.181 18.5414C307.181 14.1329 311.006 11.3655 315.822 11.3655C319.696 11.3655 322.908 13.1483 324.561 16.2439L320.26 18.6386C319.412 16.8072 317.759 15.9644 315.822 15.9644C313.982 15.9644 312.374 16.7585 312.374 18.4482C312.374 22.7188 325.08 20.1378 325.08 28.8169Z" fill="white"/>
<path d="M33.858 0C24.9122 0 19.3166 4.44489 17.0791 13.3347C20.4373 8.88979 24.3518 7.22042 28.8268 8.33063C31.3769 8.96677 33.2001 10.8063 35.2224 12.8444C38.5116 16.1588 42.3205 20 50.6369 20C59.5826 20 65.1742 15.5551 67.4117 6.66532C64.0575 11.1102 60.143 12.7755 55.6681 11.6653C53.118 11.0332 51.2906 9.18963 49.2725 7.15559C45.9833 3.83712 42.1743 0 33.858 0ZM17.0791 20C8.13335 20 2.54174 24.4449 0.304291 33.3347C3.65844 28.8898 7.57297 27.2245 12.0479 28.3347C14.6021 28.9668 16.4253 30.8104 18.4435 32.8444C21.7327 36.1629 25.5416 40 33.858 40C42.8078 40 48.3994 35.5551 50.6369 26.6653C47.2786 31.1102 43.3641 32.7796 38.8933 31.6694C36.3391 31.0332 34.5158 29.1937 32.4936 27.1556C29.2044 23.8412 25.3954 20 17.0791 20Z" fill="#06B6D4"/>
</g>
<defs>
<clipPath id="clip0_50_16">
<rect width="325.385" height="40" fill="white"/>
</clipPath>
</defs>
</svg>
